<svg xmlns="http://www.w3.org/2000/svg" width="96.87" height="88.534" viewBox="0 0 96.87 88.534" fill="currentColor">
  <g id="amor" transform="translate(0.001 -22.03)">
    <path id="Trazado_138" data-name="Trazado 138" d="M95.2,53.62A10.258,10.258,0,0,0,85.674,48.7,13.873,13.873,0,0,0,74.94,54.942,13.872,13.872,0,0,0,64.208,48.7a10.256,10.256,0,0,0-9.52,4.919c-1.821,3.108-2.163,7.6-.985,12.053A26.684,26.684,0,0,0,40.8,77.063a27.752,27.752,0,0,0-8.376-8.993,23.925,23.925,0,0,0-12.285-4.1c-7.306-.305-13.7,2.986-17.1,8.8A24.837,24.837,0,0,0,.006,84.8a38.58,38.58,0,0,0,3.023,15.288A1.419,1.419,0,0,0,5.652,99C1.965,90.064,1.9,80.33,5.489,74.2c2.866-4.893,8.3-7.659,14.536-7.4a21.091,21.091,0,0,1,10.825,3.624,25.5,25.5,0,0,1,8.675,10.26,1.419,1.419,0,0,0,2.56,0A24.434,24.434,0,0,1,54.609,68.368a26.043,26.043,0,0,0,6.28,9.027,38.848,38.848,0,0,0,13.563,8.1,1.419,1.419,0,0,0,.978,0q1.716-.629,3.315-1.357c.323,7.358-2.139,15.446-6.905,22.5C65.328,116.284,54.6,124.094,40.8,129.247a78.165,78.165,0,0,1-16.3-8.23l4.844-1.665a3.577,3.577,0,0,0,0-6.765l-6.466-2.222a.734.734,0,0,1-.458-.458l-2.222-6.466a3.532,3.532,0,0,0-3.382-2.414h0a3.533,3.533,0,0,0-3.382,2.414l-1.927,5.607a45.789,45.789,0,0,1-3.433-5.112,1.419,1.419,0,0,0-2.459,1.417,48.655,48.655,0,0,0,3.7,5.5L4.3,112.588a3.577,3.577,0,0,0,0,6.765l6.466,2.222a.734.734,0,0,1,.458.458l2.221,6.466a3.577,3.577,0,0,0,6.765,0l1.944-5.657a80.634,80.634,0,0,0,18.165,9.251,1.419,1.419,0,0,0,.978,0,78.676,78.676,0,0,0,20.2-10.717,55.172,55.172,0,0,0,12.7-13.147c5.368-7.949,8-17.169,7.309-25.46a37.077,37.077,0,0,0,4.787-3.075,1.419,1.419,0,1,0-1.719-2.258,38.233,38.233,0,0,1-9.628,5.212c-5.507-2.1-14.681-6.867-18.013-16.151-1.5-4.175-1.417-8.667.209-11.442a7.468,7.468,0,0,1,6.954-3.518,11.386,11.386,0,0,1,9.571,6.846,1.419,1.419,0,0,0,2.56,0,11.386,11.386,0,0,1,9.572-6.846,7.468,7.468,0,0,1,6.954,3.518c2.4,4.1,1.742,12.06-4.211,18.734a1.419,1.419,0,1,0,2.118,1.889,24,24,0,0,0,5.974-12.1A15.34,15.34,0,0,0,95.2,53.62ZM19.744,121.111l-2.222,6.465a.738.738,0,0,1-1.4,0L13.9,121.111a3.553,3.553,0,0,0-2.22-2.22l-6.466-2.222a.739.739,0,0,1,0-1.4l6.466-2.222a3.553,3.553,0,0,0,2.22-2.22l2.222-6.465a.708.708,0,0,1,.7-.5h0a.708.708,0,0,1,.7.5l2.222,6.465a3.554,3.554,0,0,0,2.22,2.22l6.466,2.222a.739.739,0,0,1,0,1.4l-6.466,2.222A3.553,3.553,0,0,0,19.744,121.111Z" transform="translate(0 -21.616)" fill="currentColor"/>
    <path id="Trazado_139" data-name="Trazado 139" d="M136.735,43.7a1.42,1.42,0,0,0,.978,0c3.382-1.241,9.386-4.243,11.6-10.4,1.06-2.954.95-6.1-.289-8.218a6.315,6.315,0,0,0-5.861-3.044,8.217,8.217,0,0,0-5.936,3.054,8.216,8.216,0,0,0-5.937-3.054,6.314,6.314,0,0,0-5.861,3.044c-1.239,2.115-1.349,5.263-.289,8.218C127.349,39.458,133.353,42.46,136.735,43.7Zm-8.859-17.186a3.494,3.494,0,0,1,3.105-1.647c.062,0,.125,0,.188,0a5.652,5.652,0,0,1,4.775,3.445,1.419,1.419,0,0,0,2.56,0,5.653,5.653,0,0,1,4.775-3.445,3.533,3.533,0,0,1,3.294,1.643,7.225,7.225,0,0,1,.067,5.824c-1.723,4.8-6.441,7.345-9.415,8.512-2.974-1.167-7.692-3.711-9.415-8.512a7.227,7.227,0,0,1,.067-5.824Z" transform="translate(-100.875 0)" fill="currentColor"/>
  </g>
</svg>
