<svg xmlns="http://www.w3.org/2000/svg" width="51.837" height="49.728" viewBox="0 0 51.837 49.728">
  <path id="_25_-_Star" data-name="25 - Star" d="M23.2,5.354,19.528,16.668a1.809,1.809,0,0,1-1.718,1.25H5.915a4.421,4.421,0,0,0-2.6,8l9.626,6.989a1.806,1.806,0,0,1,.656,2.02L9.918,46.241a4.423,4.423,0,0,0,6.806,4.944l9.624-6.991a1.808,1.808,0,0,1,2.122,0l9.624,6.991A4.423,4.423,0,0,0,44.9,46.241L41.223,34.928a1.806,1.806,0,0,1,.656-2.02L51.5,25.917a4.421,4.421,0,0,0-2.6-8H37.008a1.809,1.809,0,0,1-1.718-1.25L31.615,5.354a4.424,4.424,0,0,0-8.413,0Zm3.394,1.1a.848.848,0,0,1,1.608,0l3.676,11.314A5.38,5.38,0,0,0,37,21.489H48.89a.848.848,0,0,1,.5,1.536l-9.622,6.991a5.378,5.378,0,0,0-1.954,6.014l3.676,11.312a.85.85,0,0,1-1.309.95L30.57,41.3a5.378,5.378,0,0,0-6.323,0l-9.622,6.991a.85.85,0,0,1-1.309-.95L16.991,36.03a5.378,5.378,0,0,0-1.954-6.014l-9.622-7a.848.848,0,0,1,.5-1.536H17.809a5.38,5.38,0,0,0,5.115-3.716L26.6,6.452Z" transform="translate(-1.49 -2.301)" fill="#ff715e" fill-rule="evenodd"/>
</svg>
