<svg id="ceotimeslogo" xmlns="http://www.w3.org/2000/svg" width="275.052" height="47.133" viewBox="0 0 275.052 47.133">
  <path id="Trazado_27" data-name="Trazado 27" d="M473.7,39.526l-4,13.622c5.945-13.205,23.993-23.232,15.426,1.195,2.213-4,11.077-18.6,17.026-14.2,4.47,3.3-4.73,20.894-3.784,25.846,1.267.674,4.189-3.139,4.8-4.053.249-.377.986.084,1.006.036.3-.782-.241-3.023.052-4.161,2.041-7.982,7.87-16.777,16.769-18.108,7.461-1.114,13.662,2.49,7.841,9.846-3.941,4.975-12.64,6.687-18.589,7.268-2.754,12.9,14.753,11.686,17.6,2.361l1.179-.012c-.265,6.727,5.143,12.187,11.393,7.581,5.765-7.016-11.405-13.434-7.06-23.1,3.312-7.36,10.572-2.369,13.919-2.574,1.255-.076,3.047-2.706,3.412-.954l-1.632,9.409-1.583.012c2.048-9.73-13.594-11.033-9.633-2.193,2.2,4.923,16.609,15.458,3.576,21.592-6.033,2.838-8.286-.657-12.191-.509-1.724.064-1.455,2.093-3.4,1.551l1.006-6c-5.977,6.3-19.379,10.014-22.454-1.211-2.357,2.83-7.124,9.938-11.209,5.993-2.321-3.54,5.1-18.453,4.975-23.1-.032-1.147-.076-1.872-1.4-2.145-8.747,4.815-13.161,16.348-15.863,25.613l-5.172-.156L481.949,43.9c-2.369-3.2-9.613,7.509-10.568,9.124a57.334,57.334,0,0,0-6.138,16.112l-5.164.044,7.1-24.719L466.2,42.8l-3.436-.04-.682-1.227,11.626-2Zm36.886,15.631c4.49.958,19.944-7.537,14.845-13.045-4.687-5.059-15.715,8.094-14.845,13.045Z" transform="translate(-275.637 -23.558)" fill="#de968d"/>
  <g id="Grupo_11" data-name="Grupo 11">
    <path id="Trazado_28" data-name="Trazado 28" d="M269.4,6.891c23.059,22.931-15.346,56.217-35.335,31.526C214.75,14.56,249.238-13.15,269.4,6.891Zm-19.6-3.66c-11.662,2.357-11.6,34.028-2.578,39.267,20.341,11.81,24.306-43.665,2.578-39.267Z" transform="translate(-136.824 0)" fill="#de968d"/>
    <g id="Grupo_10" data-name="Grupo 10" transform="translate(0 0.218)">
      <path id="Trazado_29" data-name="Trazado 29" d="M152.862,2.82V16.049l-1.4-.4c-.413-5.123-4.618-10.018-10.026-10.018h-8.619V23.265c4.454.377,6.478-.826,8.206-4.823.593-1.367.714-6.972,2.618-5v22.65l-1.588-.008c-.253-5.284-3.107-10.912-9.237-10.014V41.105c0,4.394,5.929,3.7,9.008,3.4,6.984-.69,11.1-4.747,13-11.373l1.239-.241-2,14.432H115.98v-1.6l5.188-1.03c.938-.742.718-1.764.846-2.762.573-4.514.774-31.061-.048-34.87-.966-4.482-6.647-.822-5.985-4.237h36.882Z" transform="translate(-69.452 -1.907)" fill="#de968d"/>
      <path id="Trazado_30" data-name="Trazado 30" d="M41.716,15.888l-1.551-.056C34.681-2.9,13.133.75,11.71,20.558c-1.547,21.5,13.53,31.711,29.2,14.977.722,9.245-13.053,11.818-20.229,11.213C-10.139,44.135-4.951-1.391,25.893.642c3.059.2,10.66,3.416,12.011,3.211,2.614-.393,1.367-3.981,3.816-3.2V15.888Z" transform="translate(0.001 -0.543)" fill="#de968d"/>
    </g>
  </g>
  <g id="Grupo_12" data-name="Grupo 12" transform="translate(143.139 1.131)">
    <path id="Trazado_31" data-name="Trazado 31" d="M395.94,2.82l-3.808,12.035-1.01-.22c2.449-8.78-2.878-10.427-10.355-8.343L370.68,42.328c-.714,3.66,3.432,3.812,6.017,3.792v1.2H357.05c1.147-2.325,5.653-.682,6.891-4.133L375.1,5.839c-6.659-1.271-13.3,1.491-14.653,8.6l-1.387.413,3.4-12.023h33.474Z" transform="translate(-357.05 -2.82)" fill="#de968d"/>
    <path id="Trazado_32" data-name="Trazado 32" d="M444.169,39.824,436.989,65.3l1.575,1.227,4-4.061,1.592.4c-2.145,2.963-6.711,8.575-10.836,7.236a3.065,3.065,0,0,1-1.535-1.267c-1.756-3.263,6.062-20.345,5.6-25.22-.469-1.764-3.468-.645-4.638-.589l-.2-1.006,11.622-2.2Z" transform="translate(-401.67 -24.987)" fill="#de968d"/>
    <circle id="Elipse_1" data-name="Elipse 1" cx="3.372" cy="3.372" r="3.372" transform="translate(38.562 1.724)" fill="#de968d"/>
  </g>
</svg>
