<svg xmlns="http://www.w3.org/2000/svg" width="29.769" height="20.35" viewBox="0 0 29.769 20.35">
  <g id="email" transform="translate(0 0)">
    <path id="Trazado_89" data-name="Trazado 89" d="M28.025,81H17.21a.581.581,0,0,0,0,1.163H27.568L14.885,92.615,2.2,82.164H12.559a.581.581,0,0,0,0-1.163H1.744A1.746,1.746,0,0,0,0,82.745V99.607a1.746,1.746,0,0,0,1.744,1.744H28.025a1.746,1.746,0,0,0,1.744-1.744V82.745A1.746,1.746,0,0,0,28.025,81ZM18.46,91.176l10.147-8.361V99.537Zm-3.575,2.6a1.161,1.161,0,0,0,.74-.265l1.921-1.583,10.023,8.259H2.2L12.224,91.93l1.921,1.583A1.161,1.161,0,0,0,14.885,93.778Zm-3.575-2.6L1.163,99.537V82.815Z" transform="translate(0 -81.001)" fill="#fff"/>
    <ellipse id="Elipse_10" data-name="Elipse 10" cx="0.534" cy="0.534" rx="0.534" ry="0.534" transform="translate(14.828 0.002)" fill="#fff"/>
  </g>
</svg>
