<svg xmlns="http://www.w3.org/2000/svg" width="51.904" height="50.873" viewBox="0 0 51.904 50.873">
  <g id="Eyebrow_Tattoo" transform="translate(-4.378 -5.046)">
    <path id="Trazado_100" data-name="Trazado 100" d="M40.065,63.446a.586.586,0,1,0,.256,1.143c1.523-.341,2.435-2.31,2.759-3.148a17.326,17.326,0,0,0,2.638,1.111c-.061.863-.314,2.349-1.058,2.792a.586.586,0,0,0,.6,1.007c1.178-.7,1.514-2.454,1.609-3.479a14.083,14.083,0,0,0,2.982.395c.011.872-.115,2.329-.8,2.828a.586.586,0,0,0,.688.949c1.183-.858,1.307-2.816,1.29-3.8a13.064,13.064,0,0,0,3.431-.7c.091.858.1,2.38-.554,2.95a.586.586,0,0,0,.766.887c1.286-1.112,1.02-3.583.915-4.284a15.522,15.522,0,0,0,2.259-1.249c.381.743.993,2.273.555,3.068a.586.586,0,1,0,1.026.566c.818-1.48-.272-3.691-.619-4.325.293-.224.586-.457.88-.711a.586.586,0,0,0-.765-.888c-5.9,5.086-12.864,4.33-18.135,0a.586.586,0,1,0-.745.905,17.339,17.339,0,0,0,2,1.4c-.258.72-1.029,2.374-1.978,2.586Z" transform="translate(-7.617 -11.588)" fill="#27252a" stroke="#27252a" stroke-width="0.7"/>
    <path id="Trazado_101" data-name="Trazado 101" d="M61.2,45.228a1.141,1.141,0,0,0-.673-1.016c-1.152-.557-2.218-1.032-3.259-1.454a.586.586,0,0,0-.44,1.087c1.017.411,2.06.876,3.2,1.461.037.547.3,3.665.347,4.2-8.46-4.1-20.066-7.405-27.415-1.561a15.161,15.161,0,0,1,9.406-6.116.586.586,0,0,0-.237-1.148A16.254,16.254,0,0,0,30.748,49.4a.887.887,0,0,0,.292,1.252.869.869,0,0,0,1.223-.33c1.555-2.1,5.059-4.18,10.154-4.346,6-.2,12.306,2.063,17.714,4.718.734.444,1.553.034,1.438-1.031-.024-.279-.33-3.9-.367-4.439Z" transform="translate(-5.651 -7.71)" fill="#27252a" stroke="#27252a" stroke-width="0.7"/>
    <path id="Trazado_102" data-name="Trazado 102" d="M31.689,26.192l3.432,1.9a1.465,1.465,0,0,0,1.839-.352L37.4,27.2c2.51,2,2.438,2.137,2.809,2.137a.586.586,0,0,0,.372-1.039l-2.437-2,.441-.536a1.466,1.466,0,0,0-.011-1.872l-2.525-3a1.47,1.47,0,0,0-.213-1.656l-7.462-8.213a2.342,2.342,0,0,0-3.542.088l-4.911,5.974a2.343,2.343,0,0,0,.6,3.493l9.5,5.732a1.467,1.467,0,0,0,1.667-.112Zm5.991-1.177-1.625,1.976a.292.292,0,0,1-.367.071l-3.21-1.775,2.838-3.453,2.361,2.807a.293.293,0,0,1,0,.374ZM20.827,17.824l4.911-5.974a1.171,1.171,0,0,1,1.769-.044l7.462,8.213a.292.292,0,0,1,.009.381L31,25.235a.291.291,0,0,1-.376.064l-9.5-5.732a1.169,1.169,0,0,1-.3-1.744Z" transform="translate(-3.198 -1.06)" fill="#27252a" stroke="#27252a" stroke-width="0.7"/>
    <path id="Trazado_103" data-name="Trazado 103" d="M33.221,22.7a2.026,2.026,0,0,0-.065-2.634L29.736,16.3a.586.586,0,0,0-.868.788l3.421,3.764a.848.848,0,0,1,.027,1.1l-.456.554a.847.847,0,0,1-1.086.186L26.419,20.07a.586.586,0,0,0-.605,1L30.169,23.7a2.027,2.027,0,0,0,2.6-.446Z" transform="translate(-4.54 -2.342)" fill="#27252a" stroke="#27252a" stroke-width="0.7"/>
    <path id="Trazado_104" data-name="Trazado 104" d="M16.271,7.531a2.643,2.643,0,0,1,3.713-.363l1.935,1.591a.586.586,0,1,0,.744-.905L20.728,6.263a3.815,3.815,0,0,0-5.362.523l-1.62,1.97a3.815,3.815,0,0,0,.524,5.363l1.935,1.591a.586.586,0,1,0,.744-.905l-1.935-1.591A2.642,2.642,0,0,1,14.651,9.5Z" transform="translate(-1.776 0)" fill="#27252a" stroke="#27252a" stroke-width="0.7"/>
    <path id="Trazado_105" data-name="Trazado 105" d="M55.836,27.8a6.354,6.354,0,0,0-3.379.373.587.587,0,0,0,.218,1.13.593.593,0,0,0,.218-.042,5.212,5.212,0,0,1,2.757-.3.586.586,0,1,0,.185-1.157Z" transform="translate(-10.346 -4.879)" fill="#27252a" stroke="#27252a" stroke-width="0.7"/>
    <path id="Trazado_106" data-name="Trazado 106" d="M57.766,41.7a5.282,5.282,0,0,1-2.709.6.578.578,0,0,0-.616.555.586.586,0,0,0,.555.616,6.373,6.373,0,0,0,3.32-.732.586.586,0,0,0-.55-1.035Z" transform="translate(-10.859 -7.92)" fill="#27252a" stroke="#27252a" stroke-width="0.7"/>
    <path id="Trazado_107" data-name="Trazado 107" d="M61.99,35.694a5.177,5.177,0,0,1-.74,2.672.586.586,0,1,0,1,.6,6.346,6.346,0,0,0,.909-3.277.586.586,0,0,0-1.172,0Z" transform="translate(-12.329 -6.493)" fill="#27252a" stroke="#27252a" stroke-width="0.7"/>
    <path id="Trazado_108" data-name="Trazado 108" d="M50.394,41.638a.586.586,0,0,0,.658-.971,5.2,5.2,0,0,1-1.8-2.112.586.586,0,1,0-1.063.493A6.371,6.371,0,0,0,50.394,41.638Z" transform="translate(-9.481 -7.173)" fill="#27252a" stroke="#27252a" stroke-width="0.7"/>
    <path id="Trazado_109" data-name="Trazado 109" d="M60.568,29.607a.586.586,0,1,0-.757.894,5.193,5.193,0,0,1,1.564,2.291.586.586,0,0,0,1.11-.377A6.356,6.356,0,0,0,60.568,29.607Z" transform="translate(-11.988 -5.261)" fill="#27252a" stroke="#27252a" stroke-width="0.7"/>
    <path id="Trazado_110" data-name="Trazado 110" d="M48.662,34.165a5.168,5.168,0,0,1,1.023-2.577.586.586,0,1,0-.933-.708A6.332,6.332,0,0,0,47.5,34.041a.586.586,0,1,0,1.165.124Z" transform="translate(-9.341 -5.519)" fill="#27252a" stroke="#27252a" stroke-width="0.7"/>
    <path id="Trazado_111" data-name="Trazado 111" d="M4.837,16.9c1.019,8.5,8.651,14.78,11.213,22.917a20.091,20.091,0,0,1-.966,13.21.586.586,0,1,0,1.087.438,21.269,21.269,0,0,0,1-14C14.575,31.225,6.968,24.826,6,16.756c-.258-2.149.155-5.108,1.658-6.874a4.031,4.031,0,0,1,3.009-1.474.586.586,0,1,0-.048-1.171A5.159,5.159,0,0,0,6.766,9.123C4.915,11.3,4.57,14.669,4.837,16.9Z" transform="translate(0 -0.402)" fill="#27252a" stroke="#27252a" stroke-width="0.7"/>
  </g>
</svg>
