<svg xmlns="http://www.w3.org/2000/svg" xmlns:xlink="http://www.w3.org/1999/xlink" width="64.643" height="64.643" viewBox="0 0 64.643 64.643">
  <defs>
    <clipPath id="clip-path">
      <path id="path1857" d="M0-682.665H64.643v64.643H0Z" transform="translate(0 682.665)" fill="none" stroke="#27252a" stroke-width="1"/>
    </clipPath>
  </defs>
  <g id="g1851" transform="translate(0 0)">
    <g id="g1853" transform="translate(0 0)">
      <g id="g1855" clip-path="url(#clip-path)">
        <g id="g1861" transform="translate(0.947 9.505)">
          <path id="path1863" d="M-107.583-58.175q8.645-3.072,18.221-5.818a6.894,6.894,0,0,1,3.8,0,287.487,287.487,0,0,1,27.7,9.4,2.825,2.825,0,0,1,0,5.245,287.49,287.49,0,0,1-27.7,9.395,6.894,6.894,0,0,1-3.8,0,287.489,287.489,0,0,1-27.7-9.395,2.825,2.825,0,0,1,0-5.245q2.9-1.163,5.919-2.284" transform="translate(118.836 64.26)" fill="none" stroke="#27252a" stroke-linecap="round" stroke-linejoin="round" stroke-width="1"/>
        </g>
        <g id="g1865" transform="translate(14.093 28.655)">
          <path id="path1867" d="M-351-92.039v1.5a1.881,1.881,0,0,1-1.149,1.734,143.229,143.229,0,0,1-16.693,5.788,1.929,1.929,0,0,1-.515.071,1.928,1.928,0,0,1-.515-.071,143.232,143.232,0,0,1-16.694-5.788,1.882,1.882,0,0,1-1.148-1.734v-11.127" transform="translate(387.719 101.666)" fill="none" stroke="#27252a" stroke-linecap="round" stroke-linejoin="round" stroke-width="1"/>
        </g>
        <g id="g1869" transform="translate(50.807 28.566)">
          <path id="path1871" d="M0-56.684v-5.929" transform="translate(0 62.613)" fill="none" stroke="#27252a" stroke-linecap="round" stroke-linejoin="round" stroke-width="1"/>
        </g>
        <g id="g1873" transform="translate(32.322 21.79)">
          <path id="path1875" d="M0,0,15.2,7.239v18.54" fill="none" stroke="#27252a" stroke-linecap="round" stroke-linejoin="round" stroke-width="1"/>
        </g>
        <g id="g1877" transform="translate(44.936 47.569)">
          <path id="path1879" d="M-24.694,0h0a2.583,2.583,0,0,0-2.583,2.583V7.569h5.166V2.583A2.583,2.583,0,0,0-24.694,0Z" transform="translate(27.277)" fill="none" stroke="#27252a" stroke-linecap="round" stroke-linejoin="round" stroke-width="1"/>
        </g>
      </g>
    </g>
  </g>
</svg>
