<svg xmlns="http://www.w3.org/2000/svg" width="54.085" height="48.059" viewBox="0 0 54.085 48.059">
  <g id="Icon" transform="translate(-7.248 -10.012)">
    <path id="Trazado_123" data-name="Trazado 123" d="M33.307,56.263c-14.094,0-25.281-11.4-25.751-11.88a1.093,1.093,0,0,1-.043-1.473c.469-.546,11.665-13.361,25.79-13.361S58.624,42.364,59.091,42.91a1.093,1.093,0,0,1-.043,1.473C58.582,44.867,47.391,56.263,33.307,56.263ZM9.872,43.577c2.677,2.47,12.252,10.5,23.435,10.5,11.2,0,20.758-8.025,23.432-10.5-2.621-2.724-12.224-11.847-23.432-11.847S12.491,40.858,9.872,43.577Z" transform="translate(0 1.808)" fill="#27252a"/>
    <path id="Trazado_124" data-name="Trazado 124" d="M58.266,44.345a1.093,1.093,0,0,1-.672-.232,39.4,39.4,0,0,0-48.581,0,1.092,1.092,0,1,1-1.345-1.722,41.585,41.585,0,0,1,51.271,0,1.093,1.093,0,0,1-.673,1.953Z" transform="translate(0 2.178)" fill="#27252a"/>
    <path id="Trazado_125" data-name="Trazado 125" d="M40.023,34.058a1.093,1.093,0,0,1-.2-2.167c.3-.056,1.863-.56,3.645-5.026a1.093,1.093,0,1,1,2.029.808c-1.914,4.8-3.921,6.113-5.267,6.366a1.092,1.092,0,0,1-.2.017Z" transform="translate(2.932 1.493)" fill="#27252a"/>
    <path id="Trazado_126" data-name="Trazado 126" d="M37.577,33.118a1.093,1.093,0,0,1-.716-1.918,11.734,11.734,0,0,0,.735-1.794c.248-.681.555-1.523.961-2.543a1.093,1.093,0,1,1,2.031.806c-.4,1-.7,1.82-.94,2.484a6.165,6.165,0,0,1-1.382,2.719,1.093,1.093,0,0,1-.69.246Z" transform="translate(2.705 1.495)" fill="#27252a"/>
    <path id="Trazado_127" data-name="Trazado 127" d="M44.557,36.43a1.093,1.093,0,0,1-.334-2.133c.736-.237,3.289-1.389,5.244-6.271a1.092,1.092,0,1,1,2.028.813c-2.246,5.609-5.366,7.141-6.6,7.538A1.092,1.092,0,0,1,44.557,36.43Z" transform="translate(3.351 1.603)" fill="#27252a"/>
    <path id="Trazado_128" data-name="Trazado 128" d="M48.954,39.082a1.093,1.093,0,0,1-.587-2.015,20.67,20.67,0,0,0,7.1-9.037,1.092,1.092,0,1,1,2.029.811,22.5,22.5,0,0,1-7.955,10.072A1.093,1.093,0,0,1,48.954,39.082Z" transform="translate(3.758 1.604)" fill="#27252a"/>
    <path id="Trazado_129" data-name="Trazado 129" d="M32.062,55.882c-.219,0-.428,0-.642-.014a11.356,11.356,0,0,1-2.814-22.157,1.093,1.093,0,0,1,.663,2.082,9.171,9.171,0,0,0,2.279,17.894c.175.011.339.009.515.01s.34,0,.508-.01a9.172,9.172,0,0,0,2.274-17.894,1.093,1.093,0,1,1,.663-2.082A11.356,11.356,0,0,1,32.7,55.868C32.492,55.882,32.281,55.882,32.062,55.882Z" transform="translate(1.245 2.188)" fill="#27252a"/>
    <path id="Trazado_130" data-name="Trazado 130" d="M31.682,51.051a6.865,6.865,0,1,1,6.861-6.87,6.865,6.865,0,0,1-6.861,6.87Zm0-11.545a4.68,4.68,0,1,0,4.676,4.675A4.68,4.68,0,0,0,31.682,39.506Z" transform="translate(1.625 2.527)" fill="#27252a"/>
    <path id="Trazado_131" data-name="Trazado 131" d="M13.8,48.852a1.093,1.093,0,0,1-.8-1.838c2.481-2.657,2.661-5.078.566-7.618a1.093,1.093,0,0,1,1.686-1.391c1.958,2.374,3.434,6.118-.656,10.5A1.086,1.086,0,0,1,13.8,48.852Z" transform="translate(0.506 2.554)" fill="#27252a"/>
    <path id="Trazado_132" data-name="Trazado 132" d="M31.414,25.883a1.092,1.092,0,0,1-.772-.32L20.133,15.055a1.093,1.093,0,0,1,0-1.545l3.191-3.191a1.124,1.124,0,0,1,1.545,0L35.377,20.827a1.093,1.093,0,0,1,0,1.545l-3.191,3.191A1.093,1.093,0,0,1,31.414,25.883Zm-8.959-11.6,8.959,8.959L33.06,21.6,24.1,12.636Z" transform="translate(1.163 0)" fill="#27252a"/>
    <path id="Trazado_133" data-name="Trazado 133" d="M35.96,27.24a1.092,1.092,0,0,1-.772-.32l-3.977-3.977A1.093,1.093,0,0,1,32.758,21.4l3.977,3.977a1.093,1.093,0,0,1-.772,1.865Z" transform="translate(2.188 1.024)" fill="#27252a"/>
  </g>
</svg>
