<svg xmlns="http://www.w3.org/2000/svg" width="50" height="50" viewBox="0 0 50 50">
  <path id="instagram" d="M25,12.166A12.838,12.838,0,1,0,37.839,25,12.839,12.839,0,0,0,25,12.166Zm0,21.172A8.334,8.334,0,1,1,33.334,25,8.334,8.334,0,0,1,25,33.339ZM41.345,11.66a3,3,0,1,1-3-3A3,3,0,0,1,41.345,11.66Zm7.342-3.031A12.264,12.264,0,0,0,45.8,4.2C43,1.4,39.169.33,35.308.155,32.641.032,31.79,0,25,0s-7.64.027-10.307.15C10.823.331,6.994,1.4,4.2,4.2S.328,10.831.15,14.7C.029,17.365,0,18.216,0,25s.029,7.641.15,10.309C.328,39.2,1.388,43,4.2,45.81s6.629,3.869,10.5,4.046c2.667.122,3.518.149,10.307.149s7.642-.028,10.309-.149c3.876-.178,7.693-1.241,10.5-4.046s3.87-6.636,4.045-10.5c.122-2.668.15-3.52.15-10.309s-.029-7.64-.15-10.307a18.327,18.327,0,0,0-1.162-6.069ZM45.349,35.107c-.123,2.715-.754,5.54-2.73,7.518-2,2-4.784,2.606-7.517,2.73-2.637.119-3.427.146-10.1.146s-7.464-.026-10.1-.146c-2.739-.125-5.517-.736-7.517-2.73s-2.608-4.8-2.73-7.518C4.531,32.472,4.5,31.681,4.5,25s.026-7.465.146-10.1c.122-2.7.765-5.548,2.73-7.516,1.992-2,4.8-2.606,7.518-2.73,2.637-.12,3.427-.146,10.1-.146s7.467.025,10.1.146c2.738.125,5.52.734,7.516,2.73s2.606,4.794,2.73,7.517c.121,2.637.147,3.428.147,10.1s-.026,7.467-.147,10.1Z" transform="translate(0 -0.005)" fill="#ff715e"/>
</svg>
