<svg xmlns="http://www.w3.org/2000/svg" width="47.67" height="37.933" viewBox="0 0 47.67 37.933">
  <g id="Layer_2" data-name="Layer 2" transform="translate(0.5 0.5)">
    <g id="Layer_2-2" data-name="Layer 2" transform="translate(0 0)">
      <path id="Trazado_77" data-name="Trazado 77" d="M23.086,26.569c5,5,3.739,14.357,3.739,14.357s-9.359,1.258-14.357-3.739S8.729,22.829,8.729,22.829,18.088,21.571,23.086,26.569Z" transform="translate(-3.634 -7.878)" fill="none" stroke="#fcf5f5" stroke-linecap="round" stroke-linejoin="round" stroke-width="1"/>
      <path id="Trazado_78" data-name="Trazado 78" d="M38.759,26.569c-5,5-3.739,14.357-3.739,14.357s9.359,1.258,14.357-3.739,3.76-14.357,3.76-14.357S43.756,21.571,38.759,26.569Z" transform="translate(-11.548 -7.878)" fill="none" stroke="#fcf5f5" stroke-linecap="round" stroke-linejoin="round" stroke-width="1"/>
      <path id="Trazado_79" data-name="Trazado 79" d="M38.455,18.115a11.267,11.267,0,0,0,.7-3.823c0-7.067-7.507-12.791-7.507-12.791S24.14,7.225,24.14,14.291a11.386,11.386,0,0,0,.7,3.809" transform="translate(-8.315 -1.5)" fill="none" stroke="#fcf5f5" stroke-linecap="round" stroke-linejoin="round" stroke-width="1"/>
      <path id="Trazado_80" data-name="Trazado 80" d="M52.59,18.946a24.464,24.464,0,0,0-.063-8.709,24.422,24.422,0,0,0-8.807,1.4" transform="translate(-14.21 -4.127)" fill="none" stroke="#fcf5f5" stroke-linecap="round" stroke-linejoin="round" stroke-width="1"/>
      <path id="Trazado_81" data-name="Trazado 81" d="M13.106,18.946a24.38,24.38,0,0,1,.07-8.709,24.38,24.38,0,0,1,8.8,1.4" transform="translate(-4.886 -4.127)" fill="none" stroke="#fcf5f5" stroke-linecap="round" stroke-linejoin="round" stroke-width="1"/>
      <path id="Trazado_82" data-name="Trazado 82" d="M38.385,44.62c5.92.7,9.786,1.8,9.786,3.048,0,2.1-10.443,3.746-23.332,3.746S1.5,49.736,1.5,47.681c0-1.251,3.858-2.363,9.786-3.048" transform="translate(-1.5 -14.48)" fill="none" stroke="#fcf5f5" stroke-linecap="round" stroke-linejoin="round" stroke-width="1"/>
      <line id="Línea_5" data-name="Línea 5" y2="5.704" transform="translate(23.332)" fill="none" stroke="#fcf5f5" stroke-linecap="round" stroke-linejoin="round" stroke-width="1"/>
      <line id="Línea_6" data-name="Línea 6" x2="3.893" y2="3.893" transform="translate(5.095 14.951)" fill="none" stroke="#fcf5f5" stroke-linecap="round" stroke-linejoin="round" stroke-width="1"/>
      <line id="Línea_7" data-name="Línea 7" x1="3.893" y2="3.893" transform="translate(37.674 14.951)" fill="none" stroke="#fcf5f5" stroke-linecap="round" stroke-linejoin="round" stroke-width="1"/>
    </g>
  </g>
</svg>
