<svg xmlns="http://www.w3.org/2000/svg" width="55.11" height="51.156" viewBox="0 0 55.11 51.156">
  <g id="lips" transform="translate(0 -18.367)">
    <g id="Grupo_61" data-name="Grupo 61" transform="translate(0 18.367)">
      <path id="Trazado_134" data-name="Trazado 134" d="M138.02,172.459l-5.409-3.393a14.751,14.751,0,0,1-2.323-1.8.807.807,0,0,0-1.113,1.17,16.384,16.384,0,0,0,2.577,2l5.409,3.393a2.221,2.221,0,0,1,1.017,1.469H122.3a12.644,12.644,0,0,1-7.371-2.374,4.565,4.565,0,0,0-5.3,0l-.136.1a12.117,12.117,0,0,1-7.064,2.275H95.747a.807.807,0,1,0,0,1.615h6.677a12.1,12.1,0,0,1,7.192,2.368l.045.031a4.837,4.837,0,0,0,5.23,0l.045-.031a12.1,12.1,0,0,1,7.192-2.368h16.088a5.484,5.484,0,0,1-1.6,3.827l-3.816,3.876a.807.807,0,0,0,1.151,1.133l3.816-3.876a7.089,7.089,0,0,0,2.063-5v-1.183A3.806,3.806,0,0,0,138.02,172.459Zm-24.025,5.508a3.22,3.22,0,0,1-3.438,0,13.5,13.5,0,0,0-3.5-1.863,13.5,13.5,0,0,0,3.383-1.775l.137-.1a2.934,2.934,0,0,1,3.408,0,14.028,14.028,0,0,0,3.56,1.86A13.5,13.5,0,0,0,113.995,177.967Z" transform="translate(-84.721 -151.039)" fill="#27252a"/>
      <path id="Trazado_135" data-name="Trazado 135" d="M45.776,123.812a21.007,21.007,0,0,1-14.019,5.3h-8.4a21.106,21.106,0,0,1-14.972-6.2l-5.167-5.248a5.485,5.485,0,0,1-1.6-3.828H7.306a.807.807,0,1,0,0-1.615H1.651a2.221,2.221,0,0,1,1.017-1.469l5.409-3.393a16.155,16.155,0,0,0,4.309-3.935l2.281-3.008a6.825,6.825,0,0,1,7.968-1.857l.7.34a9.763,9.763,0,0,0,8.431,0,7.827,7.827,0,0,1,9.138,2.13l1.349,1.78a.807.807,0,1,0,1.287-.975l-1.349-1.78a9.4,9.4,0,0,0-11.127-2.609,8.136,8.136,0,0,1-7.026,0l-.7-.34a8.416,8.416,0,0,0-9.957,2.335L11.1,102.443a14.544,14.544,0,0,1-3.88,3.543l-5.409,3.393A3.806,3.806,0,0,0,0,112.61v1.183a7.09,7.09,0,0,0,2.064,5l5.167,5.248a22.731,22.731,0,0,0,16.123,6.686h8.4a22.62,22.62,0,0,0,15.094-5.707.807.807,0,0,0-1.075-1.2Z" transform="translate(0 -87.958)" fill="#27252a"/>
      <path id="Trazado_136" data-name="Trazado 136" d="M390.343,25.693l1.371.4a.738.738,0,0,1,.5.5l.4,1.372a1.913,1.913,0,0,0,3.673,0l.4-1.371a.737.737,0,0,1,.5-.5h0l1.371-.4a1.913,1.913,0,0,0,0-3.673l-1.371-.4a.738.738,0,0,1-.5-.5l-.4-1.371a1.913,1.913,0,0,0-3.673,0l-.4,1.371a.738.738,0,0,1-.5.5l-1.372.4a1.913,1.913,0,0,0,0,3.673Zm.451-2.123,1.372-.4a2.344,2.344,0,0,0,1.6-1.6l.4-1.371a.3.3,0,0,1,.573,0l.4,1.372a2.344,2.344,0,0,0,1.6,1.6l1.371.4a.3.3,0,0,1,0,.573l-1.371.4a2.344,2.344,0,0,0-1.6,1.6l-.4,1.371a.3.3,0,0,1-.573,0l-.4-1.372a2.344,2.344,0,0,0-1.6-1.6l-1.371-.4a.3.3,0,0,1,0-.573Z" transform="translate(-347.098 -18.367)" fill="#27252a"/>
      <path id="Trazado_137" data-name="Trazado 137" d="M30.635,395.287l-1.371-.4a.737.737,0,0,1-.5-.5l-.4-1.371a1.913,1.913,0,0,0-3.673,0l-.4,1.371a.738.738,0,0,1-.5.5l-1.372.4a1.913,1.913,0,0,0,0,3.673l1.371.4a.738.738,0,0,1,.5.5l.4,1.372a1.913,1.913,0,0,0,3.673,0l.4-1.371a.737.737,0,0,1,.5-.5l1.371-.4a1.913,1.913,0,0,0,0-3.673Zm-.451,2.123-1.371.4a2.344,2.344,0,0,0-1.6,1.6l-.4,1.371a.3.3,0,0,1-.573,0l-.4-1.372a2.344,2.344,0,0,0-1.6-1.6l-1.371-.4a.3.3,0,0,1,0-.573l1.371-.4a2.344,2.344,0,0,0,1.6-1.6l.4-1.371a.3.3,0,0,1,.573,0l.4,1.371a2.344,2.344,0,0,0,1.6,1.6l1.371.4a.3.3,0,0,1,0,.573Z" transform="translate(-18.771 -351.457)" fill="#27252a"/>
    </g>
  </g>
</svg>
