<svg id="logo_MB_color" data-name="logo MB color" xmlns="http://www.w3.org/2000/svg" xmlns:xlink="http://www.w3.org/1999/xlink" width="92" height="44.564" viewBox="0 0 92 44.564">
  <defs>
    <clipPath id="clip-path">
      <path id="Trazado_16" data-name="Trazado 16" d="M77.841,65.075c-.011,1.056-1.383,1.279-1.535,2.3a55.558,55.558,0,0,1,6.841.307,32.313,32.313,0,0,1,6.493.73c2.686.7,6.994,2.433,5.444,5.986-1.624,3.724-9.727,6.562-13.471,7.738-2.441.767-5.2,1.185-7.557,1.972-.192.065-.389.046-.516.252,2.745.755,6.867,1.7,8.669,4.085,1.7,2.252-.041,4.754-2.013,6.106-4.483,3.074-13.882,4.317-18.991,2.6-2-.672-3.318-1.9-1.775-3.93,1.575-.1.684.8.962,1.671.456,1.432,4.969,1.929,6.3,2,3.839.192,9.476-.894,12.791-2.9,4.953-2.992,1.877-5.717-2-7.28A39.524,39.524,0,0,0,70.273,84.9l-.2-.612a1.177,1.177,0,0,1,.7-.39c1.651-.527,3.819-.75,5.57-1.193,4.322-1.094,14.749-4.025,17.416-7.481.862-1.119,1.429-2.557.381-3.725-2.026-2.255-8.768-2.972-11.759-3.194a43.722,43.722,0,0,0-6.768-.164c-.267.031-.344.012-.516.252a23.743,23.743,0,0,0-1.053,2.482c-2.461,6.037-5.64,14.986-6.622,21.349-.1.627-.066,2.167-.2,2.565a.8.8,0,0,1-1.168.218c-.655-.664.2-4.28.433-5.256,1.469-6.121,4.154-12.1,6.137-18.067L60.487,88.057a.581.581,0,0,1-.669.2c-1.3-.37-.844-5.4-.721-6.51.464-4.185,1.953-8.41,3.074-12.449l-.306-.077c-.795,1.114-1.64,2.315-2.536,3.383a87.62,87.62,0,0,1-32.635,23.92c-5.382,2.195-16.615,5.851-21.745,1.872-1.478-1.146-2.534-4.12-.046-4.574l.241.358c-.99,3.4,2.759,4.786,5.467,5.007,13.142,1.077,30.129-10.243,39.574-18.668,1.263-1.128,10.634-10.254,10.6-11.068-.011-.24-.315-.166-.458-.16a81.345,81.345,0,0,0-10.389,1.758c-4.093.79-11.036,1.863-14.7,3.433-.366.157-.831.865-1.348.507-.55-.381.315-.888.665-1.036a47.675,47.675,0,0,1,4.558-1.435,165.372,165.372,0,0,1,22.65-4.245c.472-.157,1.251-2.353,2.253-1.82l-.307,1.535,7.148-.612,3.962-.034c.592-.135,2.465-2.812,3.029-2.273ZM74,68.3l-10.744.629c-1.465,5.782-3.046,11.643-3.086,17.659.959-1.11,1.832-2.347,2.677-3.544,2.336-3.3,4.6-6.632,7.093-9.813,1.312-1.674,2.8-3.211,4.059-4.93Z" transform="translate(-3.411 -65.003)" fill="none"/>
    </clipPath>
  </defs>
  <g id="Grupo_1" data-name="Grupo 1" transform="translate(3.003 40.122)">
    <path id="Trazado_1" data-name="Trazado 1" d="M22.95,330.988l.606-4.228h.069l1.718,3.469,1.7-3.469h.068l.609,4.228h-.415l-.418-3.023-1.5,3.023h-.108l-1.512-3.046-.415,3.046Z" transform="translate(-22.95 -326.654)" fill="#cba9a9"/>
    <path id="Trazado_2" data-name="Trazado 2" d="M69.579,326.07a2.193,2.193,0,0,1,1.608.641,2.223,2.223,0,0,1-1.572,3.8,2.181,2.181,0,0,1-1.588-.644,2.114,2.114,0,0,1-.647-1.558,2.254,2.254,0,0,1,.3-1.13,2.18,2.18,0,0,1,1.906-1.11Zm.018.41a1.8,1.8,0,0,0-1.546.9,1.84,1.84,0,0,0-.237.924A1.779,1.779,0,0,0,69.6,330.1a1.817,1.817,0,0,0,.911-.238,1.709,1.709,0,0,0,.653-.653,1.832,1.832,0,0,0,.235-.921,1.776,1.776,0,0,0-.235-.91,1.748,1.748,0,0,0-.661-.652,1.79,1.79,0,0,0-.9-.244Z" transform="translate(-60.552 -326.07)" fill="#cba9a9"/>
    <path id="Trazado_3" data-name="Trazado 3" d="M111.07,330.988V326.76h.876a4.487,4.487,0,0,1,1.377.152,1.845,1.845,0,0,1,.962.747,2.277,2.277,0,0,1,.346,1.268,2.218,2.218,0,0,1-.275,1.117,1.768,1.768,0,0,1-.713.713,2.679,2.679,0,0,1-1.228.231Zm.406-.4h.489a4.577,4.577,0,0,0,1.216-.109,1.4,1.4,0,0,0,.75-.558,1.725,1.725,0,0,0,.274-.987,1.8,1.8,0,0,0-.3-1.045,1.489,1.489,0,0,0-.825-.595,5,5,0,0,0-1.308-.121h-.3Z" transform="translate(-97.527 -326.654)" fill="#cba9a9"/>
    <path id="Trazado_4" data-name="Trazado 4" d="M148.772,326.752h2.422v.413h-2v1.325h1.983v.413h-1.983v1.661h1.983v.413H148.77V326.75Z" transform="translate(-129.433 -326.645)" fill="#cba9a9"/>
    <path id="Trazado_5" data-name="Trazado 5" d="M178.63,326.752h.842a5.13,5.13,0,0,1,.954.057,1.093,1.093,0,0,1,.612.37,1.056,1.056,0,0,1,.235.7,1.121,1.121,0,0,1-.163.607,1.011,1.011,0,0,1-.464.395,2.129,2.129,0,0,1-.833.137l1.52,1.963h-.523l-1.52-1.963h-.238v1.963h-.423V326.75Zm.423.413V328.6l.728.006a1.8,1.8,0,0,0,.626-.08.655.655,0,0,0,.317-.257.715.715,0,0,0,.114-.395.679.679,0,0,0-.115-.387.654.654,0,0,0-.3-.249,1.851,1.851,0,0,0-.622-.075h-.745Z" transform="translate(-154.704 -326.646)" fill="#cba9a9"/>
    <path id="Trazado_6" data-name="Trazado 6" d="M210.94,330.988V326.76h.092L213.846,330V326.76h.417v4.228h-.1l-2.791-3.2v3.2Z" transform="translate(-182.049 -326.654)" fill="#cba9a9"/>
    <path id="Trazado_7" data-name="Trazado 7" d="M268.31,326.752h.833a1.968,1.968,0,0,1,.773.12.953.953,0,0,1,.427.366,1.035,1.035,0,0,1,.02,1.062,1.024,1.024,0,0,1-.4.375,1.584,1.584,0,0,1,.507.263,1.058,1.058,0,0,1,.277.364,1.094,1.094,0,0,1,.1.464,1.141,1.141,0,0,1-.372.861,1.391,1.391,0,0,1-1,.352h-1.16V326.75Zm.413.413v1.354h.241a1.917,1.917,0,0,0,.649-.081.714.714,0,0,0,.329-.258.687.687,0,0,0,.121-.392.553.553,0,0,0-.2-.455,1.017,1.017,0,0,0-.647-.166h-.49Zm0,1.78v1.621h.524a1.889,1.889,0,0,0,.679-.091.773.773,0,0,0,.347-.283.739.739,0,0,0-.054-.908.953.953,0,0,0-.506-.287,3.748,3.748,0,0,0-.752-.052Z" transform="translate(-230.602 -326.645)" fill="#cba9a9"/>
    <path id="Trazado_8" data-name="Trazado 8" d="M299.432,326.752h2.422v.413h-2v1.325h1.983v.413h-1.983v1.661h1.983v.413H299.43V326.75Z" transform="translate(-256.939 -326.645)" fill="#cba9a9"/>
    <path id="Trazado_9" data-name="Trazado 9" d="M328.8,326.76l1.972,4.228h-.456l-.665-1.391h-1.821l-.659,1.391H326.7l2-4.228h.1Zm-.052.9-.724,1.531h1.445Z" transform="translate(-280.018 -326.654)" fill="#cba9a9"/>
    <path id="Trazado_10" data-name="Trazado 10" d="M366.751,326.752h.423V329.3a5.507,5.507,0,0,0,.017.566.964.964,0,0,0,.146.418.856.856,0,0,0,.353.281,1.118,1.118,0,0,0,.479.114.943.943,0,0,0,.4-.089.885.885,0,0,0,.321-.247,1,1,0,0,0,.189-.383,3.131,3.131,0,0,0,.043-.661V326.75h.423V329.3a3.113,3.113,0,0,1-.111.916,1.256,1.256,0,0,1-.443.609,1.269,1.269,0,0,1-.8.258,1.536,1.536,0,0,1-.876-.244,1.18,1.18,0,0,1-.489-.647,3.409,3.409,0,0,1-.077-.891V326.75Z" transform="translate(-313.913 -326.645)" fill="#cba9a9"/>
    <path id="Trazado_11" data-name="Trazado 11" d="M398.21,327.173v-.413h2.316v.413h-.942v3.814h-.43v-3.814h-.942Z" transform="translate(-340.538 -326.654)" fill="#cba9a9"/>
    <path id="Trazado_12" data-name="Trazado 12" d="M424.26,326.76h.486l1.082,1.743,1.065-1.743h.489l-1.339,2.207v2.021h-.416v-2.021l-1.365-2.207Z" transform="translate(-362.584 -326.654)" fill="#cba9a9"/>
    <path id="Trazado_13" data-name="Trazado 13" d="M477.742,326.76l1.972,4.228h-.456l-.665-1.391h-1.821l-.659,1.391h-.472l2-4.228h.1Zm-.052.9-.724,1.531h1.445Z" transform="translate(-406.068 -326.654)" fill="#cba9a9"/>
    <path id="Trazado_14" data-name="Trazado 14" d="M518.473,326.968l-.333.257a1.812,1.812,0,0,0-.662-.544,1.951,1.951,0,0,0-.85-.186,1.887,1.887,0,0,0-.937.243,1.74,1.74,0,0,0-.669.653,1.8,1.8,0,0,0-.237.921,1.733,1.733,0,0,0,.53,1.291,1.841,1.841,0,0,0,1.339.518,1.883,1.883,0,0,0,1.486-.7l.333.254a2.13,2.13,0,0,1-.788.622,2.481,2.481,0,0,1-1.056.22,2.2,2.2,0,0,1-1.751-.739,2.231,2.231,0,0,1-.538-1.506,2.087,2.087,0,0,1,.652-1.561,2.242,2.242,0,0,1,1.631-.633,2.407,2.407,0,0,1,1.07.234,2.083,2.083,0,0,1,.782.656Z" transform="translate(-438.82 -326.078)" fill="#cba9a9"/>
    <path id="Trazado_15" data-name="Trazado 15" d="M555.592,326.76l1.972,4.228h-.456l-.665-1.391h-1.821l-.659,1.391h-.472l2-4.228h.1Zm-.052.9-.724,1.531h1.445Z" transform="translate(-471.953 -326.654)" fill="#cba9a9"/>
  </g>
  <g id="Grupo_2" data-name="Grupo 2" clip-path="url(#clip-path)">
    <rect id="Rectángulo_2" data-name="Rectángulo 2" width="93.248" height="46.736" transform="translate(-0.524 -9.99)" fill="#cba9a9"/>
  </g>
</svg>
