<svg id="logo_MB_color" data-name="logo MB color" xmlns="http://www.w3.org/2000/svg" xmlns:xlink="http://www.w3.org/1999/xlink" width="260" height="125.941" viewBox="0 0 260 125.941">
  <defs>
    <clipPath id="clip-path">
      <path id="Trazado_16" data-name="Trazado 16" d="M213.757,65.206c-.03,2.984-3.909,3.614-4.339,6.511,6.485-.352,12.887.426,19.332.869,6.519.447,11.836.361,18.35,2.063,7.592,1.981,19.766,6.875,15.384,16.917-4.591,10.524-27.489,18.546-38.069,21.869-6.9,2.167-14.689,3.349-21.356,5.572-.543.182-1.1.13-1.459.712,7.757,2.133,19.406,4.812,24.5,11.545,4.812,6.363-.117,13.434-5.69,17.256-12.669,8.687-39.233,12.2-53.67,7.358-5.659-1.9-9.377-5.364-5.017-11.106,4.452-.291,1.933,2.25,2.719,4.721,1.29,4.048,14.042,5.451,17.812,5.642,10.85.543,26.781-2.528,36.149-8.187,14-8.456,5.3-16.157-5.655-20.574-6.454-2.6-13.568-3.809-20.379-5.138l-.573-1.729a3.326,3.326,0,0,1,1.972-1.1c4.665-1.49,10.793-2.12,15.74-3.37,12.213-3.092,41.683-11.375,49.218-21.143,2.437-3.162,4.039-7.227,1.077-10.528-5.724-6.372-24.779-8.4-33.231-9.025-5.407-.4-13.942-1.06-19.128-.465-.756.087-.973.035-1.459.712-.708.99-2.363,5.512-2.975,7.014-6.954,17.061-15.94,42.352-18.715,60.333-.274,1.772-.187,6.124-.565,7.249s-2.48,1.446-3.3.617c-1.85-1.876.56-12.1,1.225-14.854,4.152-17.3,11.74-34.191,17.343-51.06l-34.286,46.274a1.641,1.641,0,0,1-1.889.578c-3.666-1.047-2.384-15.254-2.037-18.4,1.312-11.827,5.52-23.767,8.687-35.181l-.864-.217c-2.245,3.149-4.634,6.541-7.166,9.56-23.9,28.44-57.766,53.54-92.23,67.6-15.21,6.2-46.955,16.535-61.453,5.29-4.178-3.24-7.162-11.644-.13-12.926l.682,1.012c-2.8,9.612,7.8,13.525,15.449,14.15,37.14,3.045,85.146-28.948,111.84-52.758,3.57-3.188,30.051-28.979,29.951-31.28-.03-.678-.89-.469-1.294-.452-9.1.447-20.353,3.231-29.361,4.969-11.566,2.232-31.189,5.264-41.548,9.7-1.034.443-2.35,2.445-3.809,1.433-1.555-1.077.89-2.51,1.881-2.927A134.735,134.735,0,0,1,104.3,86.254c20.878-5.768,42.543-9.2,64.012-12,1.333-.443,3.535-6.65,6.367-5.142l-.869,4.339,20.2-1.729,11.2-.1c1.672-.382,6.967-7.948,8.561-6.424ZM202.9,74.331l-30.364,1.776c-4.139,16.339-8.608,32.9-8.721,49.9,2.71-3.136,5.177-6.632,7.566-10.016,6.6-9.338,12.991-18.741,20.044-27.732,3.709-4.73,7.909-9.073,11.471-13.933Z" transform="translate(-3.411 -65.003)" fill="#ff715e"/>
    </clipPath>
  </defs>
  <g id="Grupo_1" data-name="Grupo 1" transform="translate(8.487 113.389)">
    <path id="Trazado_1" data-name="Trazado 1" d="M22.95,338.708l1.711-11.949h.2l4.856,9.8,4.812-9.8h.191l1.72,11.949H35.263l-1.181-8.543-4.226,8.543h-.3L25.278,330.1l-1.173,8.608Z" transform="translate(-22.95 -326.46)" fill="#ff715e"/>
    <path id="Trazado_2" data-name="Trazado 2" d="M73.6,326.07a6.2,6.2,0,0,1,4.543,1.811A6.283,6.283,0,0,1,73.7,338.622a6.165,6.165,0,0,1-4.487-1.82,5.974,5.974,0,0,1-1.829-4.4,6.369,6.369,0,0,1,.834-3.192A6.16,6.16,0,0,1,73.6,326.07Zm.052,1.16a5.095,5.095,0,0,0-4.369,2.554,5.2,5.2,0,0,0-.669,2.61,5.027,5.027,0,0,0,5.034,5.064,5.135,5.135,0,0,0,2.576-.673,4.832,4.832,0,0,0,1.846-1.846,5.176,5.176,0,0,0,.665-2.6,5.019,5.019,0,0,0-.665-2.571,4.938,4.938,0,0,0-1.868-1.842,5.058,5.058,0,0,0-2.554-.691Z" transform="translate(-48.083 -326.07)" fill="#ff715e"/>
    <path id="Trazado_3" data-name="Trazado 3" d="M111.07,338.708V326.76h2.476a12.686,12.686,0,0,1,3.892.43,5.216,5.216,0,0,1,2.719,2.111,6.434,6.434,0,0,1,.977,3.583,6.267,6.267,0,0,1-.777,3.158,5,5,0,0,1-2.015,2.015,7.569,7.569,0,0,1-3.47.652h-3.8Zm1.147-1.129H113.6a12.938,12.938,0,0,0,3.436-.308,3.946,3.946,0,0,0,2.12-1.577,4.875,4.875,0,0,0,.773-2.789,5.1,5.1,0,0,0-.838-2.953,4.209,4.209,0,0,0-2.332-1.681,14.14,14.14,0,0,0-3.7-.343h-.843Z" transform="translate(-72.797 -326.46)" fill="#ff715e"/>
    <path id="Trazado_4" data-name="Trazado 4" d="M148.774,326.754h6.845v1.168h-5.655v3.744h5.6v1.168h-5.6v4.7h5.6V338.7h-6.8V326.75Z" transform="translate(-94.123 -326.455)" fill="#ff715e"/>
    <path id="Trazado_5" data-name="Trazado 5" d="M178.63,326.754h2.38a14.493,14.493,0,0,1,2.7.161,3.09,3.09,0,0,1,1.729,1.047,2.983,2.983,0,0,1,.664,1.972,3.17,3.17,0,0,1-.46,1.716,2.858,2.858,0,0,1-1.312,1.116,6.016,6.016,0,0,1-2.354.387l4.3,5.546h-1.477l-4.3-5.546h-.673V338.7H178.63V326.75Zm1.194,1.168v4.061l2.059.017a5.1,5.1,0,0,0,1.768-.226,1.85,1.85,0,0,0,.895-.725,2.021,2.021,0,0,0,.321-1.116,1.92,1.92,0,0,0-.326-1.095,1.85,1.85,0,0,0-.856-.7,5.231,5.231,0,0,0-1.759-.213H179.82Z" transform="translate(-111.013 -326.455)" fill="#ff715e"/>
    <path id="Trazado_6" data-name="Trazado 6" d="M210.94,338.708V326.76h.261l7.953,9.16v-9.16h1.177v11.949h-.269l-7.887-9.047v9.047Z" transform="translate(-129.29 -326.46)" fill="#ff715e"/>
    <path id="Trazado_7" data-name="Trazado 7" d="M268.31,326.754h2.354a5.566,5.566,0,0,1,2.185.339,2.693,2.693,0,0,1,1.208,1.034,2.926,2.926,0,0,1,.056,3,2.894,2.894,0,0,1-1.138,1.06,4.479,4.479,0,0,1,1.433.743,2.989,2.989,0,0,1,.782,1.029,3.09,3.09,0,0,1,.278,1.312,3.225,3.225,0,0,1-1.051,2.432,3.93,3.93,0,0,1-2.823.995h-3.279V326.75Zm1.168,1.168v3.826h.682a5.418,5.418,0,0,0,1.833-.23,2.018,2.018,0,0,0,.929-.73,1.94,1.94,0,0,0,.343-1.108,1.562,1.562,0,0,0-.573-1.286,2.875,2.875,0,0,0-1.829-.469h-1.385Zm0,5.03v4.582h1.481a5.337,5.337,0,0,0,1.92-.256,2.186,2.186,0,0,0,.982-.8,2.089,2.089,0,0,0-.152-2.567,2.692,2.692,0,0,0-1.429-.812,10.581,10.581,0,0,0-2.124-.148Z" transform="translate(-161.743 -326.455)" fill="#ff715e"/>
    <path id="Trazado_8" data-name="Trazado 8" d="M299.434,326.754h6.845v1.168h-5.655v3.744h5.6v1.168h-5.6v4.7h5.6V338.7h-6.8V326.75Z" transform="translate(-179.346 -326.455)" fill="#ff715e"/>
    <path id="Trazado_9" data-name="Trazado 9" d="M332.642,326.76l5.572,11.949h-1.29l-1.881-3.931H329.9l-1.863,3.931H326.7l5.646-11.949h.291Zm-.148,2.537-2.046,4.326h4.083Z" transform="translate(-194.772 -326.46)" fill="#ff715e"/>
    <path id="Trazado_10" data-name="Trazado 10" d="M366.754,326.754h1.194v7.214a15.561,15.561,0,0,0,.048,1.6,2.724,2.724,0,0,0,.413,1.181,2.419,2.419,0,0,0,1,.795,3.159,3.159,0,0,0,1.355.321,2.665,2.665,0,0,0,1.138-.252,2.5,2.5,0,0,0,.908-.7,2.837,2.837,0,0,0,.534-1.081,8.844,8.844,0,0,0,.122-1.868V326.75h1.194v7.214a8.8,8.8,0,0,1-.313,2.589,3.548,3.548,0,0,1-1.251,1.72,3.586,3.586,0,0,1-2.272.73,4.339,4.339,0,0,1-2.476-.691,3.337,3.337,0,0,1-1.381-1.829,9.636,9.636,0,0,1-.217-2.519V326.75Z" transform="translate(-217.427 -326.455)" fill="#ff715e"/>
    <path id="Trazado_11" data-name="Trazado 11" d="M398.21,327.928V326.76h6.545v1.168h-2.662v10.78h-1.216v-10.78h-2.662Z" transform="translate(-235.223 -326.46)" fill="#ff715e"/>
    <path id="Trazado_12" data-name="Trazado 12" d="M424.26,326.76h1.372l3.058,4.925,3.01-4.925h1.381L429.3,333v5.711h-1.177V333l-3.857-6.237Z" transform="translate(-249.959 -326.46)" fill="#ff715e"/>
    <path id="Trazado_13" data-name="Trazado 13" d="M481.582,326.76l5.572,11.949h-1.29l-1.881-3.931h-5.147l-1.863,3.931H475.64l5.646-11.949h.291Zm-.148,2.537-2.046,4.326h4.083Z" transform="translate(-279.023 -326.46)" fill="#ff715e"/>
    <path id="Trazado_14" data-name="Trazado 14" d="M526.019,328.59l-.943.725a5.121,5.121,0,0,0-1.872-1.538,5.513,5.513,0,0,0-2.4-.526,5.333,5.333,0,0,0-2.649.686,4.917,4.917,0,0,0-1.889,1.846,5.09,5.09,0,0,0-.669,2.6,4.9,4.9,0,0,0,1.5,3.648,5.2,5.2,0,0,0,3.783,1.464,5.322,5.322,0,0,0,4.2-1.968l.943.717a6.024,6.024,0,0,1-2.228,1.759,7.013,7.013,0,0,1-2.984.621,6.2,6.2,0,0,1-4.947-2.089,6.305,6.305,0,0,1-1.52-4.256,5.9,5.9,0,0,1,1.842-4.413,6.335,6.335,0,0,1,4.608-1.789,6.8,6.8,0,0,1,3.023.66,5.888,5.888,0,0,1,2.211,1.855Z" transform="translate(-300.914 -326.076)" fill="#ff715e"/>
    <path id="Trazado_15" data-name="Trazado 15" d="M559.432,326.76,565,338.708h-1.29l-1.881-3.931h-5.147l-1.863,3.931H553.49l5.646-11.949h.291Zm-.147,2.537-2.046,4.326h4.083Z" transform="translate(-323.06 -326.46)" fill="#ff715e"/>
  </g>
  <g id="Grupo_2" data-name="Grupo 2" clip-path="url(#clip-path)">
    <rect id="Rectángulo_3" data-name="Rectángulo 3" width="263.526" height="132.08" transform="translate(-1.481 -28.233)" fill="#ff715e"/>
  </g>
</svg>
