<svg xmlns="http://www.w3.org/2000/svg" width="49.274" height="47.984" viewBox="0 0 49.274 47.984">
  <g id="microblading" transform="translate(0 -6.697)">
    <g id="Grupo_40" data-name="Grupo 40" transform="translate(31.685 18.456)">
      <g id="Grupo_39" data-name="Grupo 39">
        <path id="Trazado_112" data-name="Trazado 112" d="M346.359,128.924a.722.722,0,0,0-.925.431l-1.262,3.467-.939-.342.508-1.394a.722.722,0,0,0-1.357-.494l-.508,1.395a1.21,1.21,0,0,0-1.544.726l-1.509,4.145-.432-.157a2.619,2.619,0,0,0-3.443,1.859l-.59,2.5a.722.722,0,1,0,1.405.331l.59-2.5a1.173,1.173,0,0,1,1.544-.834l1.11.4h0l4.556,1.658h0c.072.064,1.074.18,1.172,1.135.064.624.031.2-4.774,9.886l-.164.326-5.9-2.149.656-2.781h0l.537-2.278a.722.722,0,1,0-1.405-.331l-.866,3.672-3.549,15.051a.825.825,0,0,0,.521.964.722.722,0,0,0,.941-.875l1.908-8.094,4.7,1.71-3.741,7.427a.722.722,0,0,0,.159,1.276.824.824,0,0,0,1.019-.4l11.133-22.1a2.618,2.618,0,0,0-1.176-3.523l1.514-4.16a1.212,1.212,0,0,0-.716-1.549l1.262-3.467A.722.722,0,0,0,346.359,128.924Zm-8.368,26.132-5.018-1.826.589-2.5,5.583,2.032Zm5.389-16.539-3.2-1.165,1.429-3.926.451.164h0l2.293.835h0l.451.164Z" transform="translate(-329.246 -128.881)" fill="#27252a"/>
      </g>
    </g>
    <g id="Grupo_42" data-name="Grupo 42" transform="translate(12.999 24.98)">
      <g id="Grupo_41" data-name="Grupo 41">
        <path id="Trazado_113" data-name="Trazado 113" d="M142.318,196.672a7.245,7.245,0,1,0,7.245,7.245A7.253,7.253,0,0,0,142.318,196.672Zm0,13.046a5.8,5.8,0,1,1,5.8-5.8A5.808,5.808,0,0,1,142.318,209.718Z" transform="translate(-135.073 -196.672)" fill="#27252a"/>
      </g>
    </g>
    <g id="Grupo_44" data-name="Grupo 44" transform="translate(17.264 29.245)">
      <g id="Grupo_43" data-name="Grupo 43">
        <path id="Trazado_114" data-name="Trazado 114" d="M182.373,240.99a2.98,2.98,0,1,0,.559,5.907.722.722,0,0,0-.27-1.418,1.537,1.537,0,1,1,1.247-1.509,1.569,1.569,0,0,1-.01.177.722.722,0,1,0,1.434.164,3.015,3.015,0,0,0,.019-.34A2.983,2.983,0,0,0,182.373,240.99Z" transform="translate(-179.393 -240.99)" fill="#27252a"/>
      </g>
    </g>
    <g id="Grupo_46" data-name="Grupo 46" transform="translate(38.801 20.927)">
      <g id="Grupo_45" data-name="Grupo 45" transform="translate(0 0)">
        <path id="Trazado_115" data-name="Trazado 115" d="M404.864,154.663h0a3.955,3.955,0,0,1-.807-.083.722.722,0,1,0-.3,1.413,5.4,5.4,0,0,0,1.1.114h0a.722.722,0,0,0,0-1.444Z" transform="translate(-403.186 -154.564)" fill="#27252a"/>
      </g>
    </g>
    <g id="Grupo_48" data-name="Grupo 48" transform="translate(24.364 15.019)">
      <g id="Grupo_47" data-name="Grupo 47">
        <path id="Trazado_116" data-name="Trazado 116" d="M255.729,93.261c-.607-.058-1.225-.089-1.838-.089h0a.722.722,0,0,0,0,1.444c.567,0,1.139.029,1.7.083q.035,0,.07,0a.722.722,0,0,0,.068-1.44Z" transform="translate(-253.169 -93.172)" fill="#27252a"/>
      </g>
    </g>
    <g id="Grupo_50" data-name="Grupo 50" transform="translate(34.38 18.072)">
      <g id="Grupo_49" data-name="Grupo 49">
        <path id="Trazado_117" data-name="Trazado 117" d="M359.838,126.112c-.5-.4-.974-.756-1.461-1.092a.722.722,0,1,0-.82,1.188c.458.316.909.653,1.377,1.029a.722.722,0,0,0,.9-1.125Z" transform="translate(-357.245 -124.892)" fill="#27252a"/>
      </g>
    </g>
    <g id="Grupo_52" data-name="Grupo 52" transform="translate(29.608 15.779)">
      <g id="Grupo_51" data-name="Grupo 51">
        <path id="Trazado_118" data-name="Trazado 118" d="M310.33,101.707c-.56-.229-1.146-.434-1.741-.61a.722.722,0,0,0-.41,1.384c.549.162,1.088.352,1.6.562a.722.722,0,0,0,.546-1.336Z" transform="translate(-307.663 -101.067)" fill="#27252a"/>
      </g>
    </g>
    <g id="Grupo_54" data-name="Grupo 54" transform="translate(19.111 15.339)">
      <g id="Grupo_53" data-name="Grupo 53">
        <path id="Trazado_119" data-name="Trazado 119" d="M201.742,97.083a.722.722,0,0,0-.839-.581c-.593.108-1.194.244-1.788.4a.722.722,0,1,0,.377,1.394c.554-.15,1.116-.277,1.669-.378A.722.722,0,0,0,201.742,97.083Z" transform="translate(-198.582 -96.49)" fill="#27252a"/>
      </g>
    </g>
    <g id="Grupo_56" data-name="Grupo 56" transform="translate(14.902 16.919)">
      <g id="Grupo_55" data-name="Grupo 55">
        <path id="Trazado_120" data-name="Trazado 120" d="M157.109,113.34a.722.722,0,0,0-.952-.368c-.3.132-.6.273-.9.418a.722.722,0,1,0,.634,1.3c.28-.137.566-.27.848-.4A.722.722,0,0,0,157.109,113.34Z" transform="translate(-154.854 -112.911)" fill="#27252a"/>
      </g>
    </g>
    <g id="Grupo_58" data-name="Grupo 58" transform="translate(0 6.697)">
      <g id="Grupo_57" data-name="Grupo 57" transform="translate(0 0)">
        <path id="Trazado_121" data-name="Trazado 121" d="M42.042,15.563a28.67,28.67,0,0,0-17-8.619A28.971,28.971,0,0,0,8.578,9.6.722.722,0,0,0,9.22,10.89a27.441,27.441,0,0,1,31.785,5.678A.734.734,0,0,1,40.99,17.6a.737.737,0,0,1-.99.029,28.589,28.589,0,0,0-4.041-2.969l-.044-.024-.04-.024a20.581,20.581,0,0,0-6.91-2.474,24.3,24.3,0,0,0-15.17,2.419l-.039.021A28.2,28.2,0,0,0,8.487,18.4c-1.762,1.553-3.789,3.4-5.9,2.083a2.434,2.434,0,0,1-.772-3.355l.031-.048a17.161,17.161,0,0,1,4.967-4.815.722.722,0,0,0-.794-1.205,18.6,18.6,0,0,0-5.38,5.23l-.048.074a3.877,3.877,0,0,0,1.231,5.343,4.228,4.228,0,0,0,2.262.665c2.143,0,3.808-1.526,5.356-2.889a26.629,26.629,0,0,1,5.013-3.642,22.879,22.879,0,0,1,14.263-2.281,19.108,19.108,0,0,1,6.419,2.292c.035.021.067.04.1.056a27.218,27.218,0,0,1,3.822,2.812,2.19,2.19,0,0,0,2.94-.083,2.177,2.177,0,0,0,.047-3.078Z" transform="translate(0 -6.697)" fill="#27252a"/>
      </g>
    </g>
    <g id="Grupo_60" data-name="Grupo 60" transform="translate(4.803 22.749)">
      <g id="Grupo_59" data-name="Grupo 59">
        <path id="Trazado_122" data-name="Trazado 122" d="M80.7,182.625a17.659,17.659,0,0,0-4.844-5.616.722.722,0,1,0-.869,1.152,16.221,16.221,0,0,1,4.252,4.809,16.029,16.029,0,0,1-27.783,0,16.027,16.027,0,0,1,13.892-8.032,15.856,15.856,0,0,1,7.2,1.7.722.722,0,1,0,.649-1.289,17.285,17.285,0,0,0-7.848-1.858A17.47,17.47,0,0,0,50,182.625a.722.722,0,0,0,0,.69,17.473,17.473,0,0,0,30.706,0A.722.722,0,0,0,80.7,182.625Z" transform="translate(-49.911 -173.495)" fill="#27252a"/>
      </g>
    </g>
  </g>
</svg>
