<svg id="morningus" xmlns="http://www.w3.org/2000/svg" width="260.426" height="102.459" viewBox="0 0 260.426 102.459">
  <rect id="Rect치ngulo_11" data-name="Rect치ngulo 11" width="0.613" height="23.898" transform="translate(0 77.949)" fill="#de968d"/>
  <path id="Trazado_33" data-name="Trazado 33" d="M317.515,166.21v.613H312v-.613A47.315,47.315,0,0,0,317.515,166.21Z" transform="translate(-120.817 -64.363)" fill="#de968d"/>
  <path id="Trazado_34" data-name="Trazado 34" d="M424.613,142.112H424a31.917,31.917,0,0,0,0-4.9h.613Z" transform="translate(-164.187 -53.134)" fill="#de968d"/>
  <path id="Trazado_35" data-name="Trazado 35" d="M.613,103.5H0V99.21H.613A27.093,27.093,0,0,0,.613,103.5Z" transform="translate(0 -38.419)" fill="#de968d"/>
  <path id="Trazado_36" data-name="Trazado 36" d="M67.7,166.811l-.055.233H63.965l-.055-.264A12.654,12.654,0,0,0,67.7,166.811Z" transform="translate(-24.748 -64.584)" fill="#de968d"/>
  <path id="Trazado_37" data-name="Trazado 37" d="M259.677,166.21v.613H256v-.613A23.758,23.758,0,0,0,259.677,166.21Z" transform="translate(-99.132 -64.363)" fill="#de968d"/>
  <path id="Trazado_38" data-name="Trazado 38" d="M300,134.07c-6.943-.447-13.462-3.511-16.655-10A36.524,36.524,0,0,1,281,115.993V83.21h11.643v32.783a36.281,36.281,0,0,0,1.924,4.2c3.119,4.5,12.408,4.743,16.153,1.011A19.1,19.1,0,0,0,313.477,116V83.216h11.643v30.945a42.1,42.1,0,0,1-2.145,8.885c-3.242,7.384-9.755,10.552-17.464,11.03a47.311,47.311,0,0,1-5.515,0Z" transform="translate(-108.813 -32.223)" fill="#de968d"/>
  <path id="Trazado_39" data-name="Trazado 39" d="M399.217,120.912c-1.605,17.844-29.83,15.05-39.217,5.19.76-1.072,5.435-7.58,5.913-7.684,1.587-.343,5.288,2.849,7.255,3.726,4.2,1.863,13.579,3.916,15.246-1.985.625-2.206-1.005-3.9-2.856-4.89-7.3-3.916-20.613-2.641-23.3-13.469-4.7-18.959,17.868-23.242,31.367-16.048,1.808.962,4.982,2.083,3.805,4.246-.558,1.017-4.712,6.857-5.337,6.979-4.541-2.721-12.494-6.783-17.58-3.67-1.691,1.036-2.083,4.1-.974,5.791,3.732,5.674,24.364,2.243,25.669,16.912a31.925,31.925,0,0,1,0,4.9Z" transform="translate(-139.404 -31.933)" fill="#de968d"/>
  <path id="Trazado_40" data-name="Trazado 40" d="M271.7,61.21l-1.225,5.515c-6.575,1.477-16.563,5.919-22.25,9.308-8.738,5.215-17.415,12.4-22.495,21.33-4.3-3.389-5.968-10.068-6.728-15.319,3.965.362,4.92-4.847,8.579-4.9a7.327,7.327,0,0,0,.306,3.677C239.791,69.9,255.619,63.11,271.7,61.21Z" transform="translate(-84.804 -23.704)" fill="#de968d"/>
  <path id="Trazado_41" data-name="Trazado 41" d="M247.585,39.21c.79,3.358-2.482,4.914-2.451,7.966-7.941,3.278-16.263,12.917-17.77,21.447-3.658.055-4.614,5.264-8.579,4.9C216.1,55.087,229.631,40.7,247.585,39.21Z" transform="translate(-84.589 -15.185)" fill="#de968d"/>
  <path id="Trazado_42" data-name="Trazado 42" d="M1,127.163c1.471.135,3.162-.233,4.583.012,2.745.472,5.313,9.185,7.359,9.185l5.331-9.075,6.005-.123v23.9H18.76V136.967l-6.434,8.566L5.9,136.355v14.706H.99v-23.9Z" transform="translate(-0.383 -49.214)" fill="#de968d"/>
  <path id="Trazado_43" data-name="Trazado 43" d="M135,127.158a31.139,31.139,0,0,1,5.392.129c2.794,3.425,5.723,8.763,8.714,11.808.588.6.8,1.152,1.826.931V127.159h5.515v23.9c-1.287-.1-2.721.2-3.971-.012-2.727-.466-8.922-12.053-11.961-14.081v14.094H135v-23.9Z" transform="translate(-52.277 -49.21)" fill="#de968d"/>
  <path id="Trazado_44" data-name="Trazado 44" d="M197,127.158a31.139,31.139,0,0,1,5.392.129l10.54,13.965V127.158h5.515v23.9c-1.287-.1-2.721.2-3.971-.012-2.849-.484-8.836-12.151-11.961-14.081v14.094H197Z" transform="translate(-76.285 -49.21)" fill="#de968d"/>
  <path id="Trazado_45" data-name="Trazado 45" d="M59.174,125.73a12.654,12.654,0,1,0,12.654,12.654A12.653,12.653,0,0,0,59.174,125.73Zm-.962,19.86c-8.168-.938-7.868-13.53.1-14.553C68.138,129.774,69.143,146.84,58.212,145.59Z" transform="translate(-18.014 -48.688)" fill="#de968d"/>
  <path id="Trazado_46" data-name="Trazado 46" d="M109.4,127.053c5.631,1.146,7.427,9.2,3.621,13.426-.594.662-2.561,1.556-2.6,2.194-.074,1.305,5.876,7.218,4.8,8.279l-6.005-.123c-2.353-3.284-3.683-9-8.7-7.843v7.972H95v-23.9c4.2.588,10.491-.8,14.4,0Zm-8.885,11.03c12.127,1.887,12.133-8.021,0-6.134Z" transform="translate(-36.787 -49.105)" fill="#de968d"/>
  <path id="Trazado_47" data-name="Trazado 47" d="M249.327,150.671c-14.327-1.311-13.573-22.176-.778-24.364,3.775-.643,9.81-.061,11.759,3.756l-2.77,3.413c-14.547-9.786-18.291,15.374-3.75,12.163,2.39-.527,2.482-1.93,2.279-4.155h-4.908v-4.9h10.417v11.03c-3.15,1.514-4.939,2.751-8.579,3.064a23.757,23.757,0,0,1-3.677,0Z" transform="translate(-92.459 -48.825)" fill="#de968d"/>
  <path id="Trazado_48" data-name="Trazado 48" d="M135,107.5V84.21h13.174a36.913,36.913,0,0,1,4.289,2.451c6.716,5.258,4.9,16.588-2.929,19.743-.472.19-3.615,1.091-3.811,1.091Zm5.515-4.9c13.885,1.814,14.235-15.816,0-13.481Z" transform="translate(-52.277 -32.61)" fill="#de968d"/>
  <path id="Trazado_49" data-name="Trazado 49" d="M112.554,95.122A12.292,12.292,0,1,1,100.262,82.83,12.291,12.291,0,0,1,112.554,95.122Zm-5.331-.031a6.967,6.967,0,1,0-6.967,6.967A6.967,6.967,0,0,0,107.223,95.091Z" transform="translate(-34.065 -32.076)" fill="#de968d"/>
  <path id="Trazado_50" data-name="Trazado 50" d="M67.013,95.057A12.317,12.317,0,1,1,54.7,82.74,12.317,12.317,0,0,1,67.013,95.057Zm-5.319.018a7.016,7.016,0,1,0-7.016,7.016A7.019,7.019,0,0,0,61.694,95.075Z" transform="translate(-16.411 -32.041)" fill="#de968d"/>
  <path id="Trazado_51" data-name="Trazado 51" d="M.946,92.943c.9-9.761,14.173-13.107,20.718-6.446-2.586,5.895-4.577,1.93-8.223,1.569-8.56-.84-10.638,14.112-.539,14.112,3.805,0,5.319-.257,4.6-4.344H12.589V93.543H23.006v9.5c0,1.078-4.853,3.456-6.091,3.713C9.3,108.317,1.688,105.633.946,97.22a27.093,27.093,0,0,1,0-4.289Z" transform="translate(-0.333 -32.152)" fill="#de968d"/>
  <rect id="Rect치ngulo_12" data-name="Rect치ngulo 12" width="5.515" height="23.898" transform="translate(109.685 77.949)" fill="#de968d"/>
  <path id="Trazado_52" data-name="Trazado 52" d="M339.766,66.428h-.613c-6.857-1.036-14.192-2.194-21.14-1.838A116.013,116.013,0,0,0,303,66.428l1.226-5.515a72.246,72.246,0,0,1,29.9,2.886A18.853,18.853,0,0,1,339.766,66.428Z" transform="translate(-117.332 -23.407)" fill="#de968d"/>
  <path id="Trazado_53" data-name="Trazado 53" d="M264.447,39.112c7.8-.643,13.965.625,20.515,5.527l3.989,4.277c-2.084-.349-3.769-1.783-5.8-2.469-5.944-2.016-15.338-1.765-21.165.637-.031-3.052,3.242-4.608,2.451-7.966Z" transform="translate(-101.451 -15.087)" fill="#de968d"/>
  <path id="Trazado_54" data-name="Trazado 54" d="M248.659,20.351l-8.34-16.532c-.925-3.56,5.061-5.5,6.232-1.881Z" transform="translate(-93.022 -0.002)" fill="#de968d"/>
  <path id="Trazado_55" data-name="Trazado 55" d="M206.264,52.808c-4.492-1.612-12.948-3.248-16.765-5.595-3.848-2.365-.974-7.519,3.278-5.735Z" transform="translate(-72.681 -15.92)" fill="#de968d"/>
  <path id="Trazado_56" data-name="Trazado 56" d="M298.01,26.454c1.71-4.485,3.248-12.954,5.595-16.765s7.807-1.189,5.723,3.278Z" transform="translate(-115.399 -3.042)" fill="#de968d"/>
  <path id="Trazado_57" data-name="Trazado 57" d="M199.611,105.21l-15.773,7.862c-3.879.76-5.5-4.927-1.563-6.52,5.809-.208,11.538-1.514,17.341-1.342Z" transform="translate(-69.705 -40.736)" fill="#de968d"/>
  <path id="Trazado_58" data-name="Trazado 58" d="M276.159,21.508,274.939,16.3c.325-2.31-1.268-10.154,2.145-10.129.95.006,2.7,1.679,2.641,2.659-.214,3.438-3.615,8.8-3.573,12.678Z" transform="translate(-106.429 -2.391)" fill="#de968d"/>
  <path id="Trazado_59" data-name="Trazado 59" d="M225.793,34.181c-.417.435-3.413-2-3.965-2.463-1.091-.907-5.852-5.466-5.858-6.422-.012-1.955,3.248-3,4.626-1.538l5.2,10.417Z" transform="translate(-83.631 -8.936)" fill="#de968d"/>
  <path id="Trazado_60" data-name="Trazado 60" d="M187.871,80.461c-1.146-.355-1.36-3.346-.343-4.02,2.4-1.587,10.95,3.082,14.13,2.8.245.637-2.016,1.219-2.145,1.219C197.068,80.461,189.494,80.964,187.871,80.461Z" transform="translate(-72.364 -29.474)" fill="#de968d"/>
  <path id="Trazado_61" data-name="Trazado 61" d="M327.183,36.922c1.611,2.3-2.347,4.963-4.2,5.754l-7.966,3.67c2.255-1.428,7.727-10.025,10.08-10.086a6.361,6.361,0,0,1,2.083.668Z" transform="translate(-121.986 -14.042)" fill="#de968d"/>
  <path id="Trazado_62" data-name="Trazado 62" d="M362.613,70.21h1.219c.055,1.538-1.55.043-1.832,0Z" transform="translate(-140.179 -27.189)" fill="#de968d"/>
  <path id="Trazado_63" data-name="Trazado 63" d="M232.5,42.21c.4.2.4.411,0,.613Z" transform="translate(-90.032 -16.347)" fill="#de968d"/>
</svg>
