<svg xmlns="http://www.w3.org/2000/svg" width="45.953" height="36.575" viewBox="0 0 45.953 36.575">
  <g id="Layer_2" data-name="Layer 2" transform="translate(0.5 0.5)">
    <path id="Trazado_21" data-name="Trazado 21" d="M22.553,26.426c4.814,4.814,3.6,13.829,3.6,13.829s-9.015,1.212-13.829-3.6-3.6-13.829-3.6-13.829S17.739,21.612,22.553,26.426Z" transform="translate(-3.816 -8.423)" fill="none" stroke="#fff" stroke-linecap="round" stroke-linejoin="round" stroke-width="1"/>
    <path id="Trazado_22" data-name="Trazado 22" d="M38.616,26.426c-4.814,4.814-3.6,13.829-3.6,13.829s9.015,1.212,13.829-3.6,3.622-13.829,3.622-13.829S43.43,21.612,38.616,26.426Z" transform="translate(-12.406 -8.423)" fill="none" stroke="#fff" stroke-linecap="round" stroke-linejoin="round" stroke-width="1"/>
    <path id="Trazado_23" data-name="Trazado 23" d="M37.928,17.5a10.853,10.853,0,0,0,.673-3.683C38.6,7.014,31.371,1.5,31.371,1.5S24.14,7.014,24.14,13.821a10.967,10.967,0,0,0,.673,3.669" transform="translate(-8.897 -1.5)" fill="none" stroke="#fff" stroke-linecap="round" stroke-linejoin="round" stroke-width="1"/>
    <path id="Trazado_24" data-name="Trazado 24" d="M52.264,18.625a23.564,23.564,0,0,0-.061-8.389,23.524,23.524,0,0,0-8.483,1.347" transform="translate(-15.295 -4.352)" fill="none" stroke="#fff" stroke-linecap="round" stroke-linejoin="round" stroke-width="1"/>
    <path id="Trazado_25" data-name="Trazado 25" d="M13.093,18.625a23.483,23.483,0,0,1,.067-8.389,23.483,23.483,0,0,1,8.476,1.347" transform="translate(-5.175 -4.352)" fill="none" stroke="#fff" stroke-linecap="round" stroke-linejoin="round" stroke-width="1"/>
    <path id="Trazado_26" data-name="Trazado 26" d="M37.028,44.62c5.7.673,9.426,1.73,9.426,2.935,0,2.02-10.058,3.609-22.473,3.609S1.5,49.548,1.5,47.569c0-1.205,3.716-2.276,9.426-2.935" transform="translate(-1.5 -15.589)" fill="none" stroke="#fff" stroke-linecap="round" stroke-linejoin="round" stroke-width="1"/>
    <line id="Línea_2" data-name="Línea 2" y2="5.494" transform="translate(22.473)" fill="none" stroke="#fff" stroke-linecap="round" stroke-linejoin="round" stroke-width="1"/>
    <line id="Línea_3" data-name="Línea 3" x2="3.75" y2="3.75" transform="translate(4.908 14.401)" fill="none" stroke="#fff" stroke-linecap="round" stroke-linejoin="round" stroke-width="1"/>
    <line id="Línea_4" data-name="Línea 4" x1="3.75" y2="3.75" transform="translate(36.289 14.401)" fill="none" stroke="#fff" stroke-linecap="round" stroke-linejoin="round" stroke-width="1"/>
  </g>
</svg>
