<svg xmlns="http://www.w3.org/2000/svg" width="33.558" height="31.164" viewBox="0 0 33.558 31.164">
  <g id="phone-call" transform="translate(0 0)">
    <path id="Trazado_83" data-name="Trazado 83" d="M204.744,18.258H192.676a.492.492,0,1,0,0,.983h12.068a1.348,1.348,0,0,1,1.347,1.347V33.245a1.348,1.348,0,0,1-1.347,1.347h-1.927a.491.491,0,0,0-.288.093l-3.352,2.428v-2.03a.491.491,0,0,0-.492-.492H188.016a1.348,1.348,0,0,1-1.347-1.347V20.588a1.348,1.348,0,0,1,1.347-1.347h2.519a.492.492,0,0,0,0-.983h-2.519a2.332,2.332,0,0,0-2.33,2.33V33.245a2.333,2.333,0,0,0,2.33,2.33h10.178v2.5a.492.492,0,0,0,.78.4l4-2.9h1.768a2.332,2.332,0,0,0,2.33-2.33V20.588a2.333,2.333,0,0,0-2.33-2.33Z" transform="translate(-173.516 -18.258)" fill="#27252a"/>
    <path id="Trazado_84" data-name="Trazado 84" d="M28.548,80.307a2.291,2.291,0,0,0-1.184-1.71l-2.186-1.191a.492.492,0,1,0-.47.863l2.186,1.191a1.317,1.317,0,0,1,.681.982v.008a1.318,1.318,0,0,1-.4,1.137l-.322.309-8.07-4.541.948-.834a1.29,1.29,0,0,1,1.466-.164l1.364.743a.492.492,0,0,0,.47-.863L21.672,75.5a2.276,2.276,0,0,0-2.586.288l-2.21,1.944a1.3,1.3,0,0,1-1.607.09,23.76,23.76,0,0,1-7.39-7.843,1.3,1.3,0,0,1,.193-1.526L9.822,66.6a2.278,2.278,0,0,0,.381-2.575L7.258,58.136A2.313,2.313,0,0,0,3.62,57.47L2.5,58.5a7.72,7.72,0,0,0-2.365,4.27A7.629,7.629,0,0,0,.793,67.6l.009.018c.47.95.978,1.88,1.509,2.76.089.148.184.3.284.466a.492.492,0,0,0,.835-.519c-.1-.156-.19-.308-.277-.453-.517-.858-1.012-1.762-1.469-2.687l-.008-.016a6.786,6.786,0,0,1,1.4-7.852l4.433,8.3-.148.157a2.275,2.275,0,0,0-.337,2.68,24.715,24.715,0,0,0,7.685,8.169,2.279,2.279,0,0,0,2.82-.157l.48-.422,8.111,4.564-.008.008a6.765,6.765,0,0,1-7.793,1.137A37.843,37.843,0,0,1,4.852,72.438a.492.492,0,0,0-.8.578A38.818,38.818,0,0,0,17.863,84.627a7.745,7.745,0,0,0,8.926-1.3L27.86,82.3a2.291,2.291,0,0,0,.692-1.961c0-.009,0-.019,0-.028ZM3.818,58.625l.468-.433a1.33,1.33,0,0,1,2.092.382l2.944,5.888a1.292,1.292,0,0,1-.216,1.46l-.889.94Z" transform="translate(0 -54.326)" fill="#27252a"/>
    <path id="Trazado_85" data-name="Trazado 85" d="M402.605,133a1.717,1.717,0,1,0-1.717,1.717A1.719,1.719,0,0,0,402.605,133Zm-2.451,0a.734.734,0,1,1,.734.734A.735.735,0,0,1,400.154,133Z" transform="translate(-373.01 -123.875)" fill="#27252a"/>
    <path id="Trazado_86" data-name="Trazado 86" d="M326.093,133a1.717,1.717,0,1,0-1.717,1.717A1.719,1.719,0,0,0,326.093,133Zm-2.451,0a.734.734,0,1,1,.734.734A.735.735,0,0,1,323.642,133Z" transform="translate(-301.512 -123.875)" fill="#27252a"/>
    <path id="Trazado_87" data-name="Trazado 87" d="M246.147,133a1.717,1.717,0,1,0,1.717-1.717A1.719,1.719,0,0,0,246.147,133Zm1.717-.734a.734.734,0,1,1-.734.734A.735.735,0,0,1,247.864,132.266Z" transform="translate(-230.015 -123.875)" fill="#27252a"/>
  </g>
</svg>
