<svg xmlns="http://www.w3.org/2000/svg" width="30.642" height="30.636" viewBox="0 0 30.642 30.636">
  <g id="phone" transform="translate(0)">
    <path id="Trazado_90" data-name="Trazado 90" d="M282.039,0a.6.6,0,0,0,0,1.2,12.017,12.017,0,0,1,12,12,.6.6,0,0,0,1.2,0A13.215,13.215,0,0,0,282.039,0Zm0,0" transform="translate(-264.597 0)" fill="#fff"/>
    <path id="Trazado_91" data-name="Trazado 91" d="M291.042,70.355a.6.6,0,0,0,.6-.6,9.611,9.611,0,0,0-9.6-9.6.6.6,0,1,0,0,1.2,8.412,8.412,0,0,1,8.4,8.4A.6.6,0,0,0,291.042,70.355Zm0,0" transform="translate(-264.598 -56.557)" fill="#fff"/>
    <path id="Trazado_92" data-name="Trazado 92" d="M286.842,126.328a.6.6,0,0,0,1.2,0,6.006,6.006,0,0,0-6-6,.6.6,0,1,0,0,1.2,4.807,4.807,0,0,1,4.8,4.8Zm0,0" transform="translate(-264.598 -113.128)" fill="#fff"/>
    <path id="Trazado_93" data-name="Trazado 93" d="M281.441,181.082a.6.6,0,0,0,.6.6,1.2,1.2,0,0,1,1.2,1.2.6.6,0,1,0,1.2,0,2.4,2.4,0,0,0-2.4-2.4A.6.6,0,0,0,281.441,181.082Zm0,0" transform="translate(-264.597 -169.682)" fill="#fff"/>
    <path id="Trazado_94" data-name="Trazado 94" d="M168.631,315.279a.6.6,0,1,1-.6-.6A.6.6,0,0,1,168.631,315.279Zm0,0" transform="translate(-157.413 -295.847)" fill="#fff"/>
    <path id="Trazado_95" data-name="Trazado 95" d="M16.4,97.66a7.115,7.115,0,0,0,8.159-1.375l1.237-1.237a1.717,1.717,0,0,0,0-2.43l-4.781-4.781a1.716,1.716,0,0,0-2.43,0l-2.032,2.032a1.184,1.184,0,0,1-1.46.193,22.45,22.45,0,0,1-2.112-1.53.6.6,0,1,0-.758.926,23.6,23.6,0,0,0,2.225,1.612,2.388,2.388,0,0,0,2.951-.355l2.032-2.032a.52.52,0,0,1,.736,0l4.782,4.781a.521.521,0,0,1,0,.737l-1.238,1.238a5.918,5.918,0,0,1-6.786,1.147A33.163,33.163,0,0,1,1.8,81.377a5.874,5.874,0,0,1,1.149-6.76l1.211-1.21a.52.52,0,0,1,.736,0l4.782,4.782a.52.52,0,0,1,0,.736L7.641,80.957a2.388,2.388,0,0,0-.355,2.951c.345.54.717,1.073,1.106,1.584a.6.6,0,1,0,.952-.725c-.369-.485-.722-.991-1.05-1.5a1.184,1.184,0,0,1,.193-1.46l2.031-2.031a1.717,1.717,0,0,0,0-2.43L5.738,72.561a1.716,1.716,0,0,0-2.429,0L2.1,73.771A7.07,7.07,0,0,0,.723,81.909,34.351,34.351,0,0,0,16.4,97.66Zm0,0" transform="translate(0.002 -67.745)" fill="#fff"/>
  </g>
</svg>
