<svg xmlns="http://www.w3.org/2000/svg" width="20.69" height="31.155" viewBox="0 0 20.69 31.155">
  <g id="placeholder" transform="translate(0)">
    <g id="Grupo_30" data-name="Grupo 30" transform="translate(9.791 2.434)">
      <g id="Grupo_29" data-name="Grupo 29" transform="translate(0)">
        <path id="Trazado_96" data-name="Trazado 96" d="M247.513,40a.609.609,0,1,0,.6.613A.609.609,0,0,0,247.513,40Z" transform="translate(-246.9 -40.005)" fill="#fff"/>
      </g>
    </g>
    <g id="Grupo_32" data-name="Grupo 32" transform="translate(6.085 6.085)">
      <g id="Grupo_31" data-name="Grupo 31">
        <path id="Trazado_97" data-name="Trazado 97" d="M190.291,100a4.26,4.26,0,0,0-.064,8.519h.033a4.26,4.26,0,0,0,.031-8.519Zm-.031,7.3h-.023a3.043,3.043,0,0,1,.022-6.085h.023a3.043,3.043,0,0,1-.022,6.085Z" transform="translate(-185.999 -100.002)" fill="#fff"/>
      </g>
    </g>
    <g id="Grupo_34" data-name="Grupo 34" transform="translate(12.188 2.861)">
      <g id="Grupo_33" data-name="Grupo 33">
        <path id="Trazado_98" data-name="Trazado 98" d="M287.1,47.046a.609.609,0,1,0-.407,1.147,6.686,6.686,0,0,1,4.445,6.352.609.609,0,0,0,.6.613h0a.609.609,0,0,0,.608-.6A7.9,7.9,0,0,0,287.1,47.046Z" transform="translate(-286.287 -47.011)" fill="#fff"/>
      </g>
    </g>
    <g id="Grupo_36" data-name="Grupo 36" transform="translate(0)">
      <g id="Grupo_35" data-name="Grupo 35" transform="translate(0)">
        <path id="Trazado_99" data-name="Trazado 99" d="M100.075,22.907c4.047-5.21,6.577-7.926,6.611-12.484A10.345,10.345,0,1,0,86,10.267c-.035,4.682,2.542,7.395,6.617,12.639C88.559,23.512,86,25.034,86,26.9c0,1.247,1.153,2.366,3.246,3.151a23.29,23.29,0,0,0,14.2,0c2.093-.785,3.246-1.9,3.246-3.152C106.686,25.035,104.125,23.513,100.075,22.907ZM87.214,10.276a9.128,9.128,0,1,1,18.255.137c-.032,4.329-2.715,7-7,12.579-.764,1-1.465,1.936-2.129,2.857-.662-.921-1.35-1.845-2.125-2.857C89.758,17.175,87.181,14.709,87.214,10.276Zm9.128,19.662c-5.224,0-9.128-1.606-9.128-3.043,0-1.065,2.333-2.411,6.257-2.877.867,1.138,1.628,2.172,2.373,3.228a.608.608,0,0,0,.5.257h0a.609.609,0,0,0,.5-.257c.739-1.042,1.52-2.1,2.38-3.228,3.92.466,6.251,1.812,6.251,2.876C105.469,28.332,101.565,29.938,96.341,29.938Z" transform="translate(-85.996)" fill="#fff"/>
      </g>
    </g>
  </g>
</svg>
