<svg id="womens-insider-2" xmlns="http://www.w3.org/2000/svg" width="391.268" height="41.389" viewBox="0 0 391.268 41.389">
  <path id="Trazado_64" data-name="Trazado 64" d="M0,.425H35.861c.184,1.008-.3.512-.885.662-1.47.361-2.088.211-3.04,1.52A39.626,39.626,0,0,0,29.33,9.74l5.98,19.428L43.077,3.811c.117-.978.267-2.318-.952-2.679C41.373.907,40.3,1.494,40.572.41h7.249c.05,1.264-1.67.843-2.522,1.475a5.219,5.219,0,0,0-1.1,1.941L33.005,41.072l-2.522.105-6.2-18.57-6.481,18.4-2.539.166L2.572,1.268,0,1.072Zm18.106.647H11.759c-.084,0-.618.436-.4.677l9.1,28.713c1.286-3.251,2.873-6.531,3.458-9.947Zm11.876.406c-.5-.391-3.458-.707-3.524.075L28.8,7.919c.05-1.445,2.639-5.312,1.169-6.441Z" transform="translate(0 0.212)" fill="#de968d"/>
  <path id="Trazado_65" data-name="Trazado 65" d="M246.618,36.647c-.885,3.6-3.741,4.77-7.7,4.169-8.1-1.249-4.426-14.477-5.5-19.518-1.152-2.348-3.558-1.986-6-1.941V39.6c0,.135,2.756-.135,2.906,0a3.833,3.833,0,0,1,0,.978h-14.5a9.545,9.545,0,0,1,0-.978c.117-.12,2.372.075,2.906,0V1.253c-.1-.647-3.307.527-2.906-.843h19.743A16.621,16.621,0,0,1,239.135,2.1c5.479,3.672,5.261,12.716-1.186,15.455l-3.992,1.46c3.758.045,7.834,1.2,8.335,5.056.384,2.889-.752,12.159.351,13.965a1.794,1.794,0,0,0,1.57.542c1.269-.316.651-3.476,2.405-2.257v.331ZM227.409,18.363c3.391.166,5.8.105,6.18-3.416.217-2.017.3-9.586-.184-11.287-.735-2.528-3.491-2.814-6-2.6Z" transform="translate(144.65 0.212)" fill="#de968d"/>
  <path id="Trazado_66" data-name="Trazado 66" d="M59.1.425,63.63,20.666,67.789.425H80.467a9.552,9.552,0,0,1,0,.978c-.134.12-2.689-.09-3.257,0v38c.067.482,3.057,0,3.257.2a3.833,3.833,0,0,1,0,.978H65.618a9.548,9.548,0,0,1,0-.978c.15-.15,3.257.15,3.257,0V2.7L60.006,40.575,58.8,40,50.769,2.381V38.122c0,1.43,2.773,1.354,2.906,1.475a3.833,3.833,0,0,1,0,.978H46.426a9.552,9.552,0,0,1,0-.978c.1-.09,1.737.2,2.505-.858a7.512,7.512,0,0,0,.785-3.22V1.388c-.585-.09-3.157.12-3.274,0a3.833,3.833,0,0,1,0-.978H59.12Z" transform="translate(31.109 0.212)" fill="#de968d"/>
  <path id="Trazado_67" data-name="Trazado 67" d="M182.458,40.56c-.818-1.821,2.789-.512,2.906-1.174v-38c-.535-.075-2.789.12-2.906,0a3.831,3.831,0,0,1,0-.978h16.486A32.357,32.357,0,0,1,203,1.975c9.8,5.117,9.537,28.713,1.938,35.485-1.219,1.084-5.094,3.085-6.715,3.085H182.475Zm11.592-.978c3.424.451,5.863-.587,6.5-3.777-.735-9.932,1.1-21.234.05-31-.4-3.777-3.04-3.552-6.548-3.416V39.582Z" transform="translate(122.221 0.212)" fill="#de968d"/>
  <path id="Trazado_68" data-name="Trazado 68" d="M40.908.062c16.736-1.6,16.887,26.727,10.957,35.666s-17.622,6.125-21.4-2.935C26.927,24.26,27.312,1.356,40.908.062ZM44.5,39.7a4.932,4.932,0,0,0,1.219-2.995c1.069-10.323-.835-22.167,0-32.656-.484-4.379-6.982-4.123-7.249.331.9,10.4-1.2,22.438,0,32.641.334,2.889,3.591,4.725,6.046,2.679Z" transform="translate(19.156 0.003)" fill="#de968d"/>
  <path id="Trazado_69" data-name="Trazado 69" d="M148.973.425,160.932,33.4V2.863c0-1.791-3.825-1.324-3.992-1.475a3.833,3.833,0,0,1,0-.978h9.053a9.545,9.545,0,0,1,0,.978c-.15.135-3.625-.376-3.625,1.144V40.56h-7.6L141.724,5.632v31.5a7.48,7.48,0,0,0,1.1,1.956c.969.783,3.123.391,3.257.5a3.833,3.833,0,0,1,0,.978h-8.7a9.545,9.545,0,0,1,0-.978c.1-.09,2.155.105,2.723-.978l.184-37.02c-.083-.482-3.424,0-3.625-.2a3.832,3.832,0,0,1,0-.978h12.31Z" transform="translate(91.584 0.212)" fill="#de968d"/>
  <path id="Trazado_70" data-name="Trazado 70" d="M95.11.425,107.07,33.4V2.863c0-1.791-3.825-1.324-3.992-1.475a3.833,3.833,0,0,1,0-.978h9.053a9.554,9.554,0,0,1,0,.978c-.134.135-3.625-.331-3.625.813V40.56h-7.6L87.861,5.632V37.46a4.256,4.256,0,0,0,1.453,1.956,11.383,11.383,0,0,0,2.539.166,3.834,3.834,0,0,1,0,.978H83.518a9.545,9.545,0,0,1,0-.978c.317-.286,2.572.557,2.906-2.122V1.388c-.651-.09-3.858.135-3.992,0a3.834,3.834,0,0,1,0-.978H95.11Z" transform="translate(55.234 0.212)" fill="#de968d"/>
  <path id="Trazado_71" data-name="Trazado 71" d="M90.565.425V9.891s-1.052.03-1.086,0c-.15-.135-.451-2.784-.8-3.687-1.62-4.123-4.126-5.312-8.97-4.8V18.709c1.9.09,3.341.135,4.894-.978,2.288-1.64,1.436-4.394,1.637-4.575a5.233,5.233,0,0,1,1.086,0V25.888s-1.052.03-1.086,0c-.117-.09.033-2.062-.084-2.694-.568-2.98-3.458-3.747-6.431-3.506V39.6c4.543.557,7.166-1.264,8.869-4.906.551-1.174,1.169-4.469,1.6-5.026.3-.391.718-.15,1.119-.2V40.56H68.133a9.55,9.55,0,0,1,0-.978c.117-.12,2.372.075,2.906,0v-38c-.067-.482-2.706,0-2.906-.2a3.833,3.833,0,0,1,0-.978H90.6Z" transform="translate(45.648 0.212)" fill="#de968d"/>
  <path id="Trazado_72" data-name="Trazado 72" d="M223.3.425V9.891a.8.8,0,0,1-1-.557C221.768,8.19,221.751,6.49,220.95,5c-1.921-3.536-4.343-3.9-8.5-3.6V18.709c1.921.105,3.324.12,4.894-.978,1.854-1.309,1.37-2.122,1.887-3.868.167-.587-.117-.843.835-.707V25.888c-.935.135-.651-.12-.835-.707-.267-.888-.167-1.761-.434-2.573-.818-2.5-3.758-3.175-6.347-2.935v19.91c5.028.617,7.533-1.58,9.237-5.553.384-.888,1.069-4.409,1.286-4.56a5.233,5.233,0,0,1,1.086,0V40.56H200.873a9.545,9.545,0,0,1,0-.978c.2-.2,2.823.286,2.906-.2v-38c-.534-.075-2.789.12-2.906,0a3.833,3.833,0,0,1,0-.978h22.466Z" transform="translate(134.624 0.212)" fill="#de968d"/>
  <path id="Trazado_73" data-name="Trazado 73" d="M102.59,28.35a1.352,1.352,0,0,1,1.269.331c.284.376,1.069,4.123,1.687,5.342a14.116,14.116,0,0,0,3.608,4.59C116.487,44,123,36.506,119.109,29.644c-2.672-4.71-10.339-6.23-13.763-10.444C98.932,11.285,104.227-2.982,116.57.6c1.1.316,3.023,1.55,3.975,1.52,1.436-.045,1.253-1.866,2.706-1.5V11.39c-.534,0-.919.135-1.269-.331-.251-.331-.919-3.4-1.353-4.334-1.771-3.777-5.512-7.374-10.322-4.876-2.071,1.084-2.455,3.115-2.272,5.117.568,6.486,10.907,8.563,14.849,13.062,6.882,7.871,2.038,22.769-10.94,20.963-2.121-.3-4.877-2.649-6.247-2.528-2.155.2-.835,2.98-3.09,2.287V28.35Z" transform="translate(68.766 0.022)" fill="#de968d"/>
  <path id="Trazado_74" data-name="Trazado 74" d="M156.934,28.35s1.052-.03,1.086,0c.05.045,0,.993.1,1.369,1.1,4.108,3.925,10.022,9.237,10.624s7.6-4.093,6.882-8.156c-1.136-6.366-10.339-8.111-14.4-12.49-7.132-7.7-1.754-22.769,10.69-19.1,1.219.361,4.092,2.227,5.161,1.234.585-.542-.033-1.58,1.537-1.234V11.375c-.4-.045-.819.2-1.119-.2-.251-.331-.986-3.476-1.47-4.5-1.67-3.536-4.994-7.013-9.621-5.162-3.107,1.234-3.441,4.62-2.455,7.238,2.522,6.667,14.314,6.937,16.887,15.786,2.405,8.262-2.556,17.818-13.245,16.509-2.138-.271-5.094-2.724-6.531-2.588-1.9.166-.969,2.814-2.723,2.3.384-1.55-.5-11.979,0-12.4Z" transform="translate(105.003 0.021)" fill="#de968d"/>
  <path id="Trazado_75" data-name="Trazado 75" d="M141.611.425c.852,1.851-3.157.482-3.274,1.174v38c.585.09,3.14-.12,3.274,0a3.832,3.832,0,0,1,0,.978h-14.5a9.545,9.545,0,0,1,0-.978c.2-.2,2.823.286,2.906-.2V1.388c-.535-.075-2.789.12-2.906,0a3.833,3.833,0,0,1,0-.978h14.5Z" transform="translate(85.183 0.212)" fill="#de968d"/>
  <path id="Trazado_76" data-name="Trazado 76" d="M186.941.425c.852,1.851-3.157.482-3.274,1.174v38c.585.09,3.14-.12,3.274,0a3.833,3.833,0,0,1,0,.978h-14.5a9.545,9.545,0,0,1,0-.978c.2-.2,2.823.286,2.906-.2V1.388c-.534-.075-2.789.12-2.906,0a3.832,3.832,0,0,1,0-.978h14.5Z" transform="translate(115.567 0.212)" fill="#de968d"/>
</svg>
